# Blender 4.2.3 LTS
# www.blender.org
mtllib head_link_LED.mtl
o node
v 0.045514 -0.021797 0.464538
v 0.044087 -0.038847 0.461516
v 0.044075 -0.039350 0.461483
v 0.043886 -0.038145 0.460950
v 0.043765 -0.035977 0.460581
v 0.044042 0.039309 0.461392
v 0.044085 0.039425 0.461511
v 0.044192 0.039578 0.461790
v 0.044257 0.039606 0.461954
v 0.044095 0.038903 0.461538
v 0.043974 0.039027 0.461204
v 0.043755 0.035808 0.460550
v 0.043931 0.035283 0.461081
v 0.043887 0.038212 0.460954
v 0.043761 0.020707 0.460568
v 0.045056 0.033496 0.463701
v 0.045293 0.028477 0.464146
v 0.044853 0.036610 0.463296
v 0.044730 0.038068 0.463041
v 0.044635 0.038652 0.462836
v 0.044582 0.039101 0.462718
v 0.044634 -0.038805 0.462835
v 0.044484 -0.039338 0.462498
v 0.044510 -0.038805 0.462557
v 0.044989 -0.020617 0.463569
v 0.044305 -0.039549 0.462074
v 0.044832 -0.036822 0.463253
v 0.044701 -0.035690 0.462978
v 0.043910 -0.038460 0.461021
v 0.043945 -0.038786 0.461121
v 0.043968 -0.038944 0.461188
v 0.043997 -0.039093 0.461269
v 0.044033 -0.039230 0.461367
v 0.044122 -0.039446 0.461609
v 0.044177 -0.039514 0.461752
v 0.044241 -0.039552 0.461915
v 0.044368 -0.039509 0.462226
v 0.044429 -0.039437 0.462369
v 0.044531 -0.039219 0.462606
v 0.044572 -0.039085 0.462697
v 0.044606 -0.038947 0.462773
v 0.044658 -0.038661 0.462886
v 0.044726 -0.038061 0.463033
v 0.045140 -0.031832 0.463861
v 0.045717 -0.011743 0.464884
v 0.045793 -0.001685 0.465008
v 0.045756 0.008375 0.464949
v 0.045598 0.018431 0.464683
v 0.044614 0.038962 0.462790
v 0.044520 0.039301 0.462581
v 0.044471 0.039415 0.462468
v 0.044414 0.039509 0.462334
v 0.044352 0.039574 0.462188
v 0.044134 0.039515 0.461640
v 0.044004 0.039175 0.461289
v 0.043949 0.038869 0.461133
v 0.043912 0.038538 0.461028
v 0.043596 0.030972 0.460021
v 0.043428 0.021265 0.459400
v 0.043349 0.011544 0.459076
v 0.043321 0.001820 0.458958
v 0.043333 -0.007905 0.459011
v 0.043392 -0.017628 0.459254
v 0.043518 -0.027344 0.459743
v 0.043651 -0.032926 0.460211
v 0.050051 -0.006842 0.383277
v 0.048660 0.006404 0.381846
v 0.048651 0.003071 0.381467
v 0.049407 -0.000496 0.382079
v 0.048641 -0.000600 0.381359
v 0.049392 -0.002990 0.382168
v 0.048658 -0.004308 0.381582
v 0.049341 -0.007583 0.382724
v 0.048584 -0.007498 0.381968
v 0.049755 0.004869 0.382688
v 0.049824 -0.000520 0.382473
v 0.049718 -0.007553 0.383086
v 0.049871 -0.002952 0.382624
v 0.049862 0.002182 0.382563
v 0.049402 0.002182 0.382125
v 0.049394 0.004889 0.382345
v 0.049295 0.009305 0.383058
v 0.048169 0.016947 0.384878
v 0.049690 0.016625 0.386278
v 0.048262 0.015360 0.384190
v 0.048345 0.013703 0.383559
v 0.050024 0.009214 0.383752
v 0.046764 0.030228 0.394727
v 0.047233 0.026901 0.391431
v 0.047596 0.023817 0.388934
v 0.048932 0.025127 0.391598
v 0.049143 0.023259 0.390164
v 0.047688 0.022870 0.388254
v 0.049385 0.020544 0.388344
v 0.049608 0.017789 0.386831
v 0.048164 0.030691 0.397071
v 0.046571 0.031497 0.396191
v 0.047984 0.031756 0.398364
v 0.047754 0.032954 0.399914
v 0.046381 0.032528 0.397444
v 0.045995 0.034687 0.400430
v 0.045931 0.034936 0.400782
v 0.047262 0.035303 0.403376
v 0.045435 0.037167 0.404387
v 0.046407 0.038786 0.409914
v 0.044549 0.040482 0.411035
v 0.045886 0.040463 0.413811
v 0.045673 0.041073 0.415334
v 0.044325 0.041180 0.412657
v 0.044069 0.041940 0.414502
v 0.043796 0.042741 0.416579
v 0.042057 0.046872 0.429562
v 0.043700 0.045814 0.430107
v 0.042286 0.046407 0.427893
v 0.042177 0.046635 0.428712
v 0.043083 0.044624 0.421972
v 0.044776 0.043475 0.422090
v 0.042264 -0.046384 0.427960
v 0.044159 -0.044790 0.426552
v 0.042167 -0.046597 0.428753
v 0.043819 -0.045518 0.429207
v 0.043709 -0.045744 0.430042
v 0.043740 -0.045678 0.429800
v 0.043796 -0.042687 0.416569
v 0.043176 -0.044314 0.421146
v 0.043064 -0.044588 0.421982
v 0.044693 -0.043603 0.422622
v 0.044587 -0.043839 0.423358
v 0.045500 -0.041534 0.416679
v 0.046129 -0.039561 0.411707
v 0.044884 -0.039367 0.408755
v 0.044981 -0.038929 0.407801
v 0.047141 -0.035928 0.404540
v 0.045360 -0.037459 0.404996
v 0.046644 -0.030947 0.395594
v 0.048243 -0.030064 0.396394
v 0.046300 -0.033057 0.398230
v 0.046258 -0.033228 0.398442
v 0.047677 -0.033282 0.400432
v 0.047355 -0.025991 0.390700
v 0.047299 -0.026286 0.390930
v 0.047876 -0.020647 0.386841
v 0.049582 -0.017918 0.386908
v 0.048098 -0.017769 0.385280
v 0.048245 -0.015591 0.384305
v 0.049776 -0.015109 0.385639
v 0.049796 -0.014731 0.385486
v 0.049283 -0.009274 0.383052
v 0.050041 -0.009175 0.383773
v 0.048642 -0.000109 0.381355
v 0.048633 0.004755 0.381600
v 0.043209 0.046724 0.433640
v 0.042893 0.047323 0.436443
v 0.040466 0.049694 0.442138
v 0.042191 0.048445 0.442240
v 0.049881 0.013248 0.384923
v 0.049796 0.014812 0.385499
v 0.049644 0.017297 0.386592
v 0.049307 0.021384 0.388865
v 0.048839 0.025860 0.392206
v 0.048773 0.026448 0.392728
v 0.048514 0.028324 0.394493
v 0.048445 0.028735 0.394899
v 0.048382 0.029235 0.395435
v 0.047904 0.032097 0.398771
v 0.047328 0.035055 0.402996
v 0.046883 0.037016 0.406367
v 0.046626 0.037979 0.408216
v 0.045494 0.041596 0.416705
v 0.043990 0.045219 0.427934
v 0.050148 0.004716 0.383046
v 0.050182 0.000088 0.382810
v 0.049886 -0.012963 0.384837
v 0.049942 -0.011666 0.384422
v 0.048009 -0.031534 0.398143
v 0.048794 -0.026341 0.392695
v 0.049690 -0.016585 0.386283
v 0.049502 -0.018956 0.387450
v 0.049431 -0.020054 0.388091
v 0.049351 -0.020862 0.388568
v 0.049177 -0.022814 0.389874
v 0.049085 -0.023698 0.390518
v 0.048387 -0.029181 0.395437
v 0.048434 -0.028987 0.395255
v 0.048745 -0.026571 0.392875
v 0.047554 -0.033920 0.401347
v 0.046682 -0.037784 0.407957
v 0.044611 -0.043792 0.423216
v 0.045313 -0.042047 0.418069
v 0.043939 -0.045275 0.428327
v 0.043578 -0.046010 0.431039
v 0.041320 -0.048216 0.435142
v 0.042193 -0.048392 0.442240
v 0.060200 -0.046099 0.484665
v 0.060575 -0.045301 0.482577
v 0.061860 -0.044522 0.486359
v 0.064400 -0.041321 0.488983
v 0.067728 -0.035571 0.489914
v 0.072122 -0.014240 0.496955
v 0.071913 -0.019843 0.494244
v 0.071234 -0.020779 0.496016
v 0.073361 -0.005039 0.495759
v 0.072829 -0.003740 0.497674
v 0.073067 -0.010110 0.495458
v 0.072688 -0.007182 0.497540
v 0.073249 0.007391 0.495659
v 0.073424 0.002408 0.495877
v 0.072886 0.012154 0.495310
v 0.072352 0.016815 0.494781
v 0.071287 0.020439 0.496122
v 0.071671 0.021250 0.494043
v 0.069545 0.028869 0.494292
v 0.069023 0.032161 0.491318
v 0.068119 0.033679 0.492833
v 0.066795 0.037010 0.491482
v 0.066504 0.038137 0.488687
v 0.065326 0.039880 0.489952
v 0.065238 0.040251 0.487371
v 0.064619 0.041141 0.486724
v 0.063805 0.042195 0.485925
v 0.061752 0.044691 0.486299
v 0.061139 0.044900 0.483181
v 0.059836 0.046453 0.484308
v 0.048520 0.009410 0.382323
v 0.048377 0.013194 0.383393
v 0.048107 0.017820 0.385289
v 0.047906 0.020418 0.386684
v 0.047417 0.025394 0.390148
v 0.047077 0.028111 0.392557
v 0.047126 0.027838 0.392309
v 0.045267 0.037836 0.405579
v 0.044889 0.039266 0.408364
v 0.042509 0.045934 0.426243
v 0.041876 0.048900 0.445049
v 0.040069 0.050298 0.445749
v 0.041563 0.049858 0.453737
v 0.039777 0.050918 0.450600
v 0.039804 0.051142 0.453000
v 0.041859 0.050036 0.456684
v 0.039983 0.051345 0.455606
v 0.040156 0.051422 0.456899
v 0.041981 0.050063 0.457386
v 0.040373 0.051496 0.458174
v 0.040745 0.051578 0.459812
v 0.042646 0.050152 0.460152
v 0.041639 0.051654 0.462439
v 0.043796 0.050153 0.463010
v 0.044500 0.050111 0.464286
v 0.044893 0.050077 0.464907
v 0.043011 0.051668 0.465169
v 0.043522 0.051648 0.465980
v 0.046483 0.051454 0.470074
v 0.048528 0.049775 0.469844
v 0.049575 0.049646 0.471082
v 0.050987 0.049420 0.472663
v 0.052766 0.049040 0.474573
v 0.050207 0.050872 0.474366
v 0.053605 0.048819 0.475452
v 0.052517 0.050285 0.476816
v 0.054392 0.049618 0.478714
v 0.057273 0.047412 0.479197
v 0.056921 0.048419 0.481298
v 0.058345 0.047546 0.482753
v 0.041227 0.048424 0.435810
v 0.041992 -0.048685 0.443998
v 0.041606 -0.049273 0.448112
v 0.041559 -0.049374 0.448988
v 0.041587 -0.049828 0.454081
v 0.039927 -0.051250 0.454998
v 0.040152 -0.051377 0.456914
v 0.040410 -0.051455 0.458358
v 0.041853 -0.049981 0.456640
v 0.041086 -0.051567 0.460947
v 0.053604 -0.048772 0.475459
v 0.050202 -0.050824 0.474363
v 0.052878 -0.048967 0.474700
v 0.048259 -0.049755 0.469521
v 0.046090 -0.049941 0.466682
v 0.043016 -0.051609 0.465161
v 0.056471 -0.047740 0.478391
v 0.054398 -0.049574 0.478742
v 0.056622 -0.048534 0.480997
v 0.072876 0.000024 0.497742
v 0.072704 0.006810 0.497579
v 0.072160 0.013851 0.497034
v 0.070086 0.026639 0.494858
v 0.068877 0.031341 0.493532
v 0.063620 0.042477 0.488190
v 0.063989 0.041970 0.488568
v 0.062634 -0.043663 0.487152
v 0.063420 -0.042691 0.487951
v 0.064834 -0.040650 0.489426
v 0.066086 -0.038441 0.490707
v 0.067238 -0.035958 0.491888
v 0.068254 -0.033251 0.492939
v 0.070055 -0.026738 0.494805
v 0.069154 -0.030280 0.493891
v 0.071645 -0.018194 0.496379
v 0.070923 -0.022608 0.495636
v 0.070600 -0.024208 0.495378
v 0.072187 -0.013592 0.497038
v 0.072592 -0.008806 0.497436
v 0.040607 -0.049425 0.440965
v 0.048512 -0.009370 0.382318
v 0.048400 -0.012487 0.383170
v 0.048360 -0.013371 0.383462
v 0.048169 -0.016908 0.384883
v 0.047629 -0.023393 0.388657
v 0.047029 -0.028524 0.393024
v 0.046853 -0.029749 0.394289
v 0.045836 -0.035382 0.401547
v 0.045682 -0.036111 0.402709
v 0.044313 -0.041145 0.412683
v 0.044200 -0.041553 0.413719
v 0.044091 -0.041872 0.414504
v 0.042117 -0.046703 0.429136
v 0.042092 -0.046757 0.429332
v 0.042065 -0.046813 0.429544
v 0.059186 0.046327 0.481137
v 0.056485 0.047777 0.478386
v 0.055087 0.048335 0.476956
v 0.046361 0.049973 0.467061
v 0.043014 0.050166 0.461231
v 0.043230 0.050166 0.461771
v 0.042345 0.050131 0.459111
v 0.041614 0.049303 0.447899
v 0.041594 0.049351 0.448351
v 0.041561 0.049424 0.448984
v 0.041495 0.049672 0.451381
v 0.041600 0.049894 0.454286
v 0.042985 -0.047100 0.435603
v 0.059186 -0.046280 0.481146
v 0.057204 -0.047400 0.479140
v 0.055125 -0.048279 0.477018
v 0.050568 -0.049444 0.472207
v 0.043646 -0.050104 0.462695
v 0.044641 -0.050040 0.464495
v 0.043443 -0.050119 0.462286
v 0.043232 -0.050120 0.461792
v 0.042888 -0.050114 0.460889
v 0.042646 -0.050107 0.460177
v 0.042293 -0.050070 0.458885
v 0.041982 -0.050010 0.457385
v 0.041562 -0.049808 0.453736
v 0.041500 -0.049606 0.451259
v 0.070064 -0.028588 0.492348
v 0.069001 -0.032214 0.491230
v 0.066335 -0.038399 0.488485
v 0.063022 -0.043041 0.485057
v 0.064830 -0.040798 0.486931
v 0.061091 -0.044886 0.483108
v 0.071070 -0.024363 0.493365
v 0.072567 -0.015099 0.494981
v 0.073462 0.000010 0.495847
v 0.073275 -0.006928 0.495668
v 0.072722 -0.013805 0.495109
v 0.060579 0.045345 0.482569
v 0.062243 0.043899 0.484298
v 0.062957 0.043169 0.485058
v 0.067662 0.035761 0.489894
v 0.068684 0.033178 0.490929
v 0.069962 0.029023 0.492235
v 0.070866 0.025301 0.493213
v 0.071784 0.020644 0.494127
v 0.072720 0.013894 0.495096
v 0.055308 0.049234 0.479657
v 0.050347 0.050850 0.474533
v 0.048349 0.051218 0.472307
v 0.045223 0.051556 0.468427
v 0.044663 0.051594 0.467660
v 0.042392 0.051676 0.464065
v 0.040966 0.051599 0.460551
v 0.039925 0.051305 0.455018
v 0.039790 0.050847 0.449922
v 0.040017 0.050387 0.446386
v 0.039782 -0.050863 0.450588
v 0.039889 -0.050564 0.448025
v 0.040073 -0.050243 0.445737
v 0.040473 -0.049640 0.442156
v 0.039849 -0.051173 0.453973
v 0.040745 -0.051526 0.459806
v 0.041695 -0.051614 0.462598
v 0.041915 -0.051613 0.463074
v 0.044668 -0.051543 0.467664
v 0.045304 -0.051501 0.468539
v 0.046484 -0.051404 0.470076
v 0.048348 -0.051166 0.472302
v 0.052101 -0.050359 0.476386
v 0.058345 -0.047499 0.482762
vn 0.8770 -0.0007 -0.4805
vn 0.8789 -0.0008 -0.4771
vn 0.8943 -0.0005 -0.4474
vn 0.9397 -0.0003 -0.3420
vn 0.9405 -0.0048 -0.3398
vn 0.9311 -0.0120 -0.3646
vn 0.9408 -0.0042 -0.3389
vn 0.9405 -0.0046 -0.3399
vn 0.9266 -0.0081 -0.3758
vn 0.9285 -0.0073 -0.3713
vn 0.9312 -0.0033 -0.3645
vn 0.9342 -0.0008 -0.3568
vn 0.9380 0.0004 -0.3465
vn 0.9399 0.0003 -0.3416
vn 0.9402 -0.0054 -0.3406
vn 0.9336 -0.0088 -0.3581
vn 0.9349 -0.0075 -0.3549
vn 0.9389 -0.0052 -0.3443
vn 0.9456 -0.0024 -0.3252
vn 0.9515 -0.0005 -0.3076
vn 0.9595 0.0016 -0.2817
vn 0.9346 0.0032 -0.3558
vn 0.9245 0.0077 -0.3812
vn 0.9415 0.0020 -0.3369
vn 0.9514 0.0005 -0.3080
vn 0.9543 -0.0004 -0.2987
vn 0.9398 -0.0002 -0.3417
vn 0.9396 0.0010 -0.3422
vn 0.9365 -0.0002 -0.3506
vn 0.9333 0.0004 -0.3592
vn 0.9303 0.0033 -0.3667
vn 0.9277 0.0072 -0.3734
vn 0.9407 0.0029 -0.3393
vn 0.9407 0.0039 -0.3393
vn 0.9496 0.0013 -0.3135
vn 0.9424 0.0006 -0.3346
vn 0.9402 0.0047 -0.3407
vn 0.9631 0.0005 -0.2692
vn 0.9618 0.0010 -0.2737
vn 0.9193 0.0085 -0.3935
vn 0.9146 0.0062 -0.4044
vn 0.9200 0.0090 -0.3919
vn 0.9204 0.0096 -0.3908
vn 0.9227 0.0133 -0.3853
vn 0.9235 0.0146 -0.3833
vn 0.9212 0.0117 -0.3888
vn 0.9426 0.0355 -0.3321
vn 0.9108 -0.0010 -0.4129
vn 0.9151 0.0024 -0.4032
vn 0.9045 0.0030 -0.4264
vn 0.8946 0.0007 -0.4468
vn 0.8815 -0.0014 -0.4721
vn 0.9133 -0.0058 -0.4073
vn 0.9134 -0.0016 -0.4070
vn 0.9180 -0.0034 -0.3965
vn 0.9130 -0.0017 -0.4079
vn 0.9161 -0.0010 -0.4008
vn 0.9197 -0.0014 -0.3927
vn 0.9201 -0.0014 -0.3916
vn 0.9235 -0.0059 -0.3836
vn 0.8944 0.0003 -0.4474
vn 0.9095 -0.0020 -0.4156
vn 0.9017 -0.0007 -0.4324
vn 0.9102 -0.0004 -0.4141
vn 0.9127 -0.0045 -0.4086
vn 0.6549 -0.4265 -0.6238
vn 0.6673 -0.3716 -0.6455
vn 0.6637 -0.3802 -0.6441
vn 0.6586 -0.3999 -0.6374
vn 0.7360 0.6713 -0.0873
vn 0.7171 0.6877 -0.1136
vn 0.7030 0.6978 -0.1376
vn 0.7473 0.6613 -0.0648
vn 0.7050 -0.1316 -0.6969
vn 0.7531 -0.0785 -0.6532
vn 0.6912 -0.1844 -0.6987
vn 0.6897 0.1826 -0.7007
vn 0.6920 0.1792 -0.6993
vn 0.7124 0.1220 -0.6910
vn 0.6941 0.0911 -0.7141
vn 0.6923 0.0767 -0.7175
vn 0.6835 0.0090 -0.7299
vn 0.6869 -0.0077 -0.7267
vn 0.6838 -0.0205 -0.7294
vn 0.6850 -0.0574 -0.7263
vn 0.7005 -0.0846 -0.7086
vn 0.6951 -0.1291 -0.7072
vn 0.7007 -0.1244 -0.7025
vn 0.6903 0.0986 -0.7168
vn 0.6910 0.1784 -0.7005
vn 0.6937 0.0898 -0.7146
vn 0.7189 0.0383 -0.6941
vn 0.6987 -0.0004 -0.7154
vn 0.7164 -0.0268 -0.6971
vn 0.7269 -0.0623 -0.6839
vn 0.6866 0.2419 -0.6856
vn 0.6817 0.2773 -0.6770
vn 0.6851 0.2584 -0.6811
vn 0.5987 0.6289 -0.4961
vn 0.5995 0.6282 -0.4959
vn 0.6000 0.6154 -0.5111
vn 0.5556 0.7363 -0.3861
vn 0.5556 0.7364 -0.3861
vn 0.5576 0.7341 -0.3875
vn 0.5588 0.7342 -0.3857
vn 0.6701 0.3715 -0.6426
vn 0.6685 0.3827 -0.6377
vn 0.6720 0.3580 -0.6483
vn 0.5858 0.6698 -0.4562
vn 0.5797 0.6790 -0.4505
vn 0.5746 0.6887 -0.4422
vn 0.6875 0.0341 -0.7254
vn 0.6920 0.0500 -0.7202
vn 0.5713 0.7010 -0.4268
vn 0.5753 0.7069 -0.4116
vn 0.5585 0.7313 -0.3915
vn 0.5670 0.7218 -0.3968
vn 0.5514 0.7434 -0.3786
vn 0.5564 0.7488 -0.3602
vn 0.5531 0.7617 -0.3376
vn 0.5501 0.7646 -0.3358
vn 0.5484 0.7747 -0.3148
vn 0.5472 0.7796 -0.3047
vn 0.5504 0.7843 -0.2862
vn 0.5544 0.7872 -0.2701
vn 0.5548 0.7924 -0.2535
vn 0.5548 0.7916 -0.2561
vn 0.5681 0.8112 -0.1384
vn 0.5692 0.8091 -0.1462
vn 0.5672 0.8120 -0.1378
vn 0.5686 0.8078 -0.1553
vn 0.5683 0.8066 -0.1629
vn 0.5686 0.8088 -0.1502
vn 0.5657 -0.8102 -0.1533
vn 0.5583 -0.8099 -0.1796
vn 0.5560 -0.8131 -0.1721
vn 0.5614 -0.8114 -0.1627
vn 0.5685 -0.8091 -0.1489
vn 0.5698 -0.8090 -0.1443
vn 0.5704 -0.8083 -0.1461
vn 0.5701 -0.8083 -0.1469
vn 0.5579 -0.7971 -0.2310
vn 0.5579 -0.8029 -0.2100
vn 0.5568 -0.8007 -0.2211
vn 0.8562 0.5090 0.0888
vn 0.8450 0.5303 0.0686
vn 0.8776 0.4623 0.1266
vn 0.8842 0.4463 0.1379
vn 0.5588 -0.8097 -0.1795
vn 0.5615 -0.7917 -0.2406
vn 0.5619 -0.7903 -0.2441
vn 0.5399 -0.7926 -0.2833
vn 0.5530 -0.7912 -0.2611
vn 0.5554 -0.7701 -0.3138
vn 0.5618 -0.7787 -0.2793
vn 0.5534 -0.7712 -0.3145
vn 0.5598 -0.7463 -0.3600
vn 0.5552 -0.7581 -0.3421
vn 0.5657 -0.7336 -0.3764
vn 0.6086 -0.6144 -0.5021
vn 0.6115 -0.6069 -0.5076
vn 0.6013 -0.6267 -0.4957
vn 0.6223 -0.5616 -0.5453
vn 0.6187 -0.5753 -0.5351
vn 0.6163 -0.5911 -0.5203
vn 0.6603 -0.4198 -0.6227
vn 0.6515 -0.4501 -0.6106
vn 0.6433 -0.4871 -0.5907
vn 0.6457 -0.4776 -0.5957
vn 0.6387 -0.5142 -0.5724
vn 0.5600 -0.8059 -0.1920
vn 0.5595 -0.8050 -0.1975
vn 0.6776 -0.3169 -0.6637
vn 0.6781 -0.3090 -0.6668
vn 0.6789 -0.2954 -0.6722
vn 0.6851 -0.2294 -0.6914
vn 0.6879 -0.1860 -0.7015
vn 0.6339 0.5270 -0.5661
vn 0.6316 0.5328 -0.5632
vn 0.6450 0.4947 -0.5824
vn 0.6456 0.4929 -0.5834
vn 0.6125 0.7832 -0.1070
vn 0.6129 0.7813 -0.1182
vn 0.6143 0.7781 -0.1314
vn 0.6132 0.7830 -0.1042
vn 0.5649 0.8157 -0.1248
vn 0.5751 0.8115 -0.1036
vn 0.5784 0.8098 -0.0984
vn 0.5578 0.7391 -0.3777
vn 0.5571 0.7389 -0.3790
vn 0.5693 -0.8107 -0.1366
vn 0.5698 -0.8093 -0.1424
vn 0.5686 -0.8122 -0.1307
vn 0.7131 -0.6890 -0.1297
vn 0.6931 -0.7045 -0.1527
vn 0.7220 -0.6816 -0.1186
vn 0.7484 -0.6584 -0.0800
vn 0.7662 -0.6395 -0.0631
vn 0.7806 -0.6237 -0.0410
vn 0.7968 -0.6040 -0.0188
vn 0.8169 -0.5766 0.0153
vn 0.8198 -0.5720 0.0259
vn 0.8376 -0.5442 0.0477
vn 0.9252 -0.3222 0.2007
vn 0.9296 -0.3022 0.2109
vn 0.9361 -0.2743 0.2202
vn 0.9413 -0.2460 0.2310
vn 0.9409 -0.2407 0.2384
vn 0.9449 -0.1619 0.2846
vn 0.9499 -0.1477 0.2755
vn 0.9473 -0.1948 0.2544
vn 0.9567 -0.1598 0.2434
vn 0.9462 -0.2074 0.2484
vn 0.9505 -0.2131 0.2261
vn 0.9524 0.0761 0.2953
vn 0.9529 0.0640 0.2965
vn 0.9505 0.0292 0.3095
vn 0.9548 -0.0005 0.2971
vn 0.9564 -0.0051 0.2920
vn 0.9499 0.1041 0.2948
vn 0.9506 0.1381 0.2779
vn 0.9485 0.1311 0.2883
vn 0.9432 0.1660 0.2876
vn 0.9433 0.2015 0.2639
vn 0.9459 0.1992 0.2560
vn 0.9389 0.2273 0.2584
vn 0.9315 0.2957 0.2119
vn 0.9290 0.3078 0.2055
vn 0.9255 0.3387 0.1693
vn 0.9070 0.3851 0.1704
vn 0.9163 0.3478 0.1983
vn 0.9038 0.3948 0.1652
vn 0.8550 -0.5131 0.0747
vn 0.8633 -0.4972 0.0869
vn 0.8138 0.5809 0.0176
vn 0.8280 0.5593 0.0396
vn 0.8067 0.5909 0.0068
vn 0.7635 0.6444 -0.0425
vn 0.6947 0.7023 -0.1554
vn 0.7811 0.6242 -0.0157
vn 0.7886 0.6148 -0.0108
vn 0.6849 -0.2356 -0.6896
vn 0.6826 -0.2696 -0.6793
vn 0.6825 -0.2696 -0.6793
vn 0.5678 -0.7050 -0.4249
vn 0.5641 -0.7182 -0.4074
vn 0.5682 -0.7222 -0.3944
vn 0.5784 -0.6922 -0.4316
vn 0.5744 0.7458 -0.3372
vn 0.5635 0.7445 -0.3580
vn 0.5738 0.7460 -0.3380
vn 0.5612 0.7415 -0.3679
vn 0.5974 0.7998 -0.0582
vn 0.5991 0.7984 -0.0605
vn 0.6019 0.7961 -0.0623
vn 0.6298 -0.5446 -0.5538
vn 0.6330 -0.5340 -0.5605
vn 0.6159 0.7758 -0.1369
vn 0.6077 0.7584 -0.2356
vn 0.6027 0.7559 -0.2556
vn 0.6023 0.7549 -0.2596
vn 0.5660 0.7355 -0.3724
vn 0.5697 0.7354 -0.3668
vn 0.5631 0.7334 -0.3808
vn 0.5888 -0.8051 -0.0713
vn 0.5912 -0.8037 -0.0675
vn 0.5964 -0.8003 -0.0624
vn 0.6004 -0.7975 -0.0602
vn 0.6029 -0.7952 -0.0640
vn 0.6037 -0.7947 -0.0636
vn 0.6086 -0.7626 -0.2192
vn 0.6098 -0.7653 -0.2061
vn 0.6071 -0.7605 -0.2304
vn 0.5954 -0.7520 -0.2829
vn 0.5989 -0.7550 -0.2668
vn 0.5941 -0.7504 -0.2898
vn 0.5743 -0.7467 -0.3355
vn 0.5712 -0.7451 -0.3442
vn 0.5603 -0.7387 -0.3747
vn 0.5625 -0.7469 -0.3546
vn 0.5566 -0.7356 -0.3862
vn 0.5572 -0.7386 -0.3796
vn 0.5688 -0.7357 -0.3678
vn 0.5628 -0.7341 -0.3800
vn 0.5708 -0.7353 -0.3655
vn 0.6111 -0.7431 -0.2728
vn 0.6298 -0.7367 -0.2462
vn 0.6339 -0.7334 -0.2456
vn 0.6064 0.7919 -0.0721
vn 0.6114 0.7865 -0.0876
vn 0.6125 0.7852 -0.0911
vn 0.6073 0.7909 -0.0747
vn 0.5920 0.7497 -0.2956
vn 0.5836 0.7444 -0.3245
vn 0.5835 0.7444 -0.3248
vn 0.5928 0.7502 -0.2929
vn 0.8897 -0.4387 0.1262
vn 0.8918 -0.4336 0.1293
vn 0.5755 -0.8106 -0.1082
vn 0.5861 -0.8063 -0.0794
vn 0.5847 -0.8068 -0.0843
vn 0.5754 -0.8107 -0.1082
vn 0.6089 -0.7896 -0.0756
vn 0.6079 -0.7907 -0.0731
vn 0.5863 0.8064 -0.0773
vn 0.5951 0.8012 -0.0620
vn 0.5933 0.8024 -0.0643
vn 0.5852 0.8070 -0.0794
vn 0.6129 -0.7691 -0.1813
vn 0.6123 -0.7684 -0.1861
vn 0.5589 -0.7344 -0.3851
vn 0.5578 -0.7344 -0.3868
vn 0.6042 0.7942 -0.0657
vn 0.6039 0.7944 -0.0649
vn 0.5973 -0.7446 -0.2980
vn 0.5943 -0.7451 -0.3027
vn 0.5536 0.7972 -0.2408
vn 0.5567 0.8016 -0.2181
vn 0.5561 0.8008 -0.2223
vn 0.5537 0.7974 -0.2398
vn 0.6690 0.7168 -0.1963
vn 0.6689 0.7169 -0.1965
vn 0.6353 0.7327 -0.2439
vn 0.6417 0.7295 -0.2366
vn 0.6552 0.4291 -0.6218
vn 0.6597 0.4161 -0.6258
vn 0.5847 -0.6708 -0.4563
vn 0.5854 -0.6771 -0.4459
vn 0.9541 -0.0883 0.2860
vn 0.9513 -0.1219 0.2832
vn 0.9513 -0.1251 0.2819
vn 0.9526 -0.1004 0.2873
vn 0.5825 -0.7419 -0.3321
vn 0.5837 -0.7427 -0.3281
vn 0.9562 -0.0310 0.2909
vn 0.9548 -0.0431 0.2940
vn 0.9366 0.2522 0.2433
vn 0.9363 0.2667 0.2285
vn 0.6687 -0.7180 -0.1932
vn 0.6688 -0.7180 -0.1931
vn 0.6123 -0.7854 -0.0913
vn 0.6123 -0.7851 -0.0927
vn 0.6871 -0.1859 -0.7023
vn 0.6147 -0.7778 -0.1311
vn 0.6148 -0.7776 -0.1320
vn 0.6133 -0.7821 -0.1106
vn 0.6131 -0.7827 -0.1072
vn 0.6490 0.4581 -0.6074
vn 0.6499 0.4656 -0.6007
vn 0.5691 -0.8092 -0.1462
vn 0.5691 -0.8092 -0.1461
vn 0.6153 -0.7728 -0.1556
vn 0.6150 -0.7722 -0.1599
vn 0.6134 0.7392 -0.2780
vn 0.6154 0.7390 -0.2741
vn 0.5916 -0.6488 -0.4786
vn 0.5909 -0.6503 -0.4775
vn 0.6027 -0.7568 -0.2528
vn 0.6024 -0.7567 -0.2539
vn 0.9162 -0.3612 0.1734
vn 0.9127 -0.3734 0.1659
vn 0.6751 0.3391 -0.6552
vn 0.6793 0.3056 -0.6672
vn 0.6792 0.3066 -0.6668
vn 0.6754 0.3375 -0.6557
vn 0.6221 0.5719 -0.5347
vn 0.6241 0.5555 -0.5494
vn 0.6236 0.5581 -0.5474
vn 0.6223 0.5756 -0.5305
vn 0.5642 0.8049 -0.1837
vn 0.5628 0.8046 -0.1894
vn 0.5928 0.6523 -0.4723
vn 0.5928 0.6522 -0.4725
vn 0.9546 -0.0668 0.2905
vn 0.9545 -0.0652 0.2911
vn 0.6752 -0.3414 -0.6539
vn 0.6750 -0.3430 -0.6532
vn 0.6146 0.7727 -0.1588
vn 0.6148 0.7732 -0.1552
vn 0.5951 0.7423 -0.3079
vn 0.5926 0.7430 -0.3112
vn 0.6122 0.7690 -0.1841
vn 0.6096 0.7634 -0.2135
vn 0.6095 0.7632 -0.2145
vn 0.6125 0.7694 -0.1815
vn 0.5757 0.7395 -0.3488
vn 0.5759 0.7396 -0.3483
vn 0.6069 0.6036 -0.5171
vn 0.6154 0.5912 -0.5213
s 1
usemtl DefaultMaterial.035
f 45//1 1//2 25//3
f 32//4 31//5 2//6
f 2//6 31//5 30//7
f 2//6 30//7 29//8
f 26//9 36//10 2//6
f 2//6 36//10 35//11
f 2//6 35//11 34//12
f 34//12 3//13 2//6
f 2//6 3//13 33//14
f 2//6 33//14 32//4
f 29//8 4//15 2//6
f 2//6 4//15 5//16
f 2//6 5//16 26//9
f 26//9 5//16 65//17
f 26//9 65//17 64//18
f 64//18 63//19 26//9
f 26//9 63//19 62//20
f 26//9 62//20 61//21
f 10//22 53//23 13//24
f 13//24 53//23 15//25
f 13//24 15//25 58//26
f 6//27 10//22 55//28
f 6//27 7//29 10//22
f 10//22 7//29 54//30
f 10//22 54//30 8//31
f 8//31 9//32 10//22
f 10//22 9//32 53//23
f 56//33 11//34 10//22
f 10//22 11//34 55//28
f 58//26 12//35 13//24
f 13//24 12//35 14//36
f 13//24 14//36 10//22
f 10//22 14//36 57//37
f 10//22 57//37 56//33
f 61//21 60//38 15//25
f 15//25 60//38 59//39
f 15//25 59//39 58//26
f 16//40 17//41 53//23
f 16//40 53//23 18//42
f 18//42 53//23 19//43
f 53//23 52//44 19//43
f 19//43 52//44 51//45
f 19//43 51//45 50//46
f 19//43 50//46 20//47
f 20//47 50//46 21//48
f 21//48 49//49 20//47
f 17//41 48//50 53//23
f 53//23 48//50 47//51
f 53//23 47//51 46//52
f 22//53 41//54 24//55
f 24//55 41//54 40//56
f 24//55 40//56 39//57
f 39//57 23//58 24//55
f 24//55 23//58 38//59
f 24//55 38//59 37//60
f 1//2 44//61 25//3
f 25//3 44//61 28//62
f 25//3 28//62 26//9
f 26//9 28//62 24//55
f 26//9 24//55 37//60
f 44//61 27//63 28//62
f 28//62 27//63 43//64
f 28//62 43//64 24//55
f 24//55 43//64 42//65
f 24//55 42//65 22//53
f 61//21 15//25 26//9
f 26//9 15//25 53//23
f 26//9 53//23 25//3
f 25//3 53//23 46//52
f 25//3 46//52 45//1
s 2
f 142//66 144//67 143//68 178//69
f 358//70 222//71 223//72 221//73
f 77//74 66//75 149//76
f 224//77 82//78 67//79
f 67//79 82//78 81//80
f 67//79 81//80 151//81
f 150//82 69//83 70//84
f 70//84 69//83 71//85
f 70//84 71//85 72//86
f 71//85 73//87 74//88 72//86
f 75//89 87//90 171//91
f 75//89 171//91 79//92
f 79//92 171//91 172//93
f 79//92 172//93 76//94
f 78//95 76//94 172//93 66//75 77//74
f 82//78 224//77 225//96
f 86//97 156//98 225//96
f 88//99 164//100 163//101
f 368//102 254//103 253//104 252//105
f 226//106 95//107 158//108
f 98//109 100//110 165//111
f 80//112 69//83 150//82 68//113
f 99//114 101//115 166//116
f 166//116 101//115 102//117
f 166//116 102//117 103//118
f 103//118 102//117 104//119
f 103//118 104//119 167//120
f 167//120 104//119 231//121
f 168//122 232//123 105//124
f 105//124 232//123 106//125
f 105//124 106//125 107//126
f 107//126 106//125 109//127
f 113//128 115//129 112//130
f 170//131 233//132 114//133
f 81//80 80//112 68//113 151//81
f 118//134 126//135 128//136
f 128//136 119//137 118//134
f 118//134 119//137 190//138
f 123//139 317//140 316//141
f 129//142 189//143 124//144
f 216//145 217//146 215//147 360//148
f 126//135 188//149 128//136
f 124//144 315//150 129//142
f 129//142 315//150 314//151
f 129//142 314//151 130//152
f 130//152 314//151 313//153
f 130//152 313//153 187//154
f 313//153 131//155 187//154
f 187//154 131//155 132//156
f 133//157 134//158 312//159
f 310//160 184//161 183//162
f 141//163 185//164 309//165
f 178//69 179//166 142//66
f 142//66 179//166 180//167
f 308//168 181//169 182//170
f 189//143 127//171 125//172 124//144
f 146//173 145//174 147//175
f 174//176 148//177 149//76
f 228//178 91//179 92//180 90//181
f 373//182 240//183 239//184 330//185
f 113//128 112//130 152//186
f 152//186 112//130 264//187
f 152//186 264//187 153//188
f 368//102 257//189 255//190 254//103
f 318//191 122//192 191//193
f 194//194 195//195 351//196
f 196//197 349//198 290//199
f 291//200 350//201 197//202
f 197//202 350//201 292//203
f 297//204 346//205 296//206
f 296//206 346//205 352//207
f 296//206 352//207 300//208
f 353//209 199//210 200//211
f 199//210 298//212 200//211
f 200//211 298//212 201//213
f 200//211 201//213 352//207
f 352//207 201//213 299//214
f 352//207 299//214 300//208
f 206//215 284//216 207//217
f 207//217 284//216 283//218
f 207//217 283//218 354//219
f 208//220 365//221 285//222
f 285//222 365//221 209//223
f 285//222 209//223 210//224
f 209//223 364//225 210//224
f 210//224 364//225 211//226
f 285//222 284//216 206//215 208//220
f 212//227 362//228 287//229
f 287//229 362//228 214//230
f 214//230 362//228 213//231
f 213//231 361//232 214//230
f 348//233 293//234 292//203 350//201
f 289//235 218//236 219//237
f 221//73 359//238 358//70
f 223//72 222//71 357//239
f 219//237 220//240 288//241 289//235
f 349//198 350//201 291//200 290//199
f 305//242 174//176 173//243 306//244
f 139//245 186//246 311//247 138//248
f 258//249 256//250 259//251
f 259//251 256//250 367//252
f 326//253 375//254 327//255
f 176//256 185//164 141//163 140//257
f 239//184 240//183 241//258
f 323//259 246//260 324//261
f 322//262 370//263 369//264
f 132//156 134//158 133//157 187//154
f 379//265 265//266 378//267
f 378//267 265//266 266//268
f 378//267 266//268 377//269
f 377//269 266//268 267//270
f 273//271 341//272 340//273
f 383//274 338//275 336//276
f 274//277 388//278 275//279
f 274//277 275//279 276//280
f 276//280 275//279 387//281
f 276//280 387//281 335//282
f 278//283 385//284 384//285
f 280//286 333//287 282//288
f 237//289 238//290 236//291 329//292
f 371//293 250//294 248//295 247//296
f 198//297 294//298 293//234 348//233
f 331//299 193//300 303//301 192//302
f 193//300 265//266 379//265 303//301
f 369//264 252//105 253//104 322//262
f 267//270 345//303 376//304 377//269
f 148//177 73//87 77//74 149//76
f 231//121 232//123 168//122 167//120
f 154//305 235//306 234//307 155//308
f 115//129 113//128 170//131 114//133
f 342//309 341//272 273//271 381//310
f 220//240 359//238 221//73 288//241
f 386//311 277//312 335//282 387//281
f 374//313 237//289 329//292 328//314
f 282//288 281//315 334//316 280//286
f 110//317 111//318 169//319 108//320
f 263//321 319//322 261//323 262//324
f 94//325 95//107 226//106 227//326
f 175//327 139//245 138//248 137//328
f 318//191 317//140 123//139 122//192
f 302//329 301//330 356//331 204//332
f 337//333 279//334 383//274 336//276
f 73//87 71//85 78//95 77//74
f 283//218 203//335 202//336 354//219
f 211//226 363//337 286//338 210//224
f 332//339 389//340 282//288 333//287
f 385//284 278//283 277//312 386//311
f 257//189 367//252 256//250 255//190
f 127//171 188//149 126//135 125//172
f 344//341 380//342 376//304 345//303
f 180//167 181//169 308//168 142//66
f 148//177 304//343 74//88 73//87
f 351//196 349//198 196//197 194//194
f 272//344 270//345 269//346 268//347
f 92//180 159//348 93//349 90//181
f 306//244 173//243 147//175 145//174
f 87//90 82//78 225//96 156//98
f 174//176 305//242 304//343 148//177
f 121//350 123//139 316//141 120//351
f 343//352 342//309 381//310 271//353
f 366//354 262//324 261//323 320//355
f 216//145 218//236 289//235 217//146
f 332//339 195//195 194//194 389//340
f 246//260 371//293 247//296 324//261
f 309//165 185//164 184//161 310//160
f 238//290 373//182 330//185 236//291
f 159//348 94//325 227//326 93//349
f 183//162 136//356 135//357 310//160
f 356//331 301//330 199//210 353//209
f 363//337 362//228 212//227 286//338
f 339//358 338//275 383//274 382//359
f 347//360 295//361 294//298 198//297
f 84//362 157//363 85//364 83//365
f 268//347 269//346 380//342 344//341
f 71//85 69//83 76//94 78//95
f 375//254 374//313 328//314 327//255
f 158//108 84//362 83//365 226//106
f 360//148 215//147 214//230 361//232
f 161//366 160//367 89//368 230//369
f 190//138 121//350 120//351 118//134
f 116//370 233//132 170//131 117//371
f 357//239 319//322 263//321 223//72
f 97//372 100//110 98//109 96//373
f 182//170 176//256 140//257 308//168
f 203//335 205//374 355//375 202//336
f 144//67 307//376 177//377 143//68
f 241//258 243//378 242//379 239//184
f 136//356 175//327 137//328 135//357
f 259//251 260//380 321//381 258//249
f 244//382 372//383 245//384 325//385
f 307//376 145//174 146//173 177//377
f 69//83 80//112 79//92 76//94
f 340//273 339//358 382//359 273//271
f 154//305 155//308 153//188 264//187
f 251//386 370//263 322//262 249//387
f 191//193 331//299 192//302 318//191
f 384//285 279//334 337//333 278//283
f 88//99 97//372 96//373 164//100
f 272//344 343//352 271//353 270//345
f 157//363 156//98 86//97 85//364
f 109//127 110//317 108//320 107//126
f 80//112 81//80 75//89 79//92
f 100//110 101//115 99//114 165//111
f 334//316 281//315 388//278 274//277
f 163//101 162//388 229//389 88//99
f 205//374 302//329 204//332 355//375
f 260//380 366//354 320//355 321//381
f 162//388 161//366 230//369 229//389
f 311//247 186//246 133//157 312//159
f 81//80 82//78 87//90 75//89
f 372//383 246//260 323//259 245//384
f 111//318 116//370 117//371 169//319
f 243//378 244//382 325//385 242//379
f 160//367 91//179 228//178 89//368
f 347//360 346//205 297//204 295//361
f 250//294 251//386 249//387 248//295
f 235//306 375//254 326//253 234//307
