# 3ds Max Wavefront OBJ Exporter v0.99 - (c)2007 guruware
# File Created: 27.07.2026 15:38:05

mtllib right_ankle_pitch_link.mtl

#
# object node
#

v  -0.0090 0.0039 -0.0000
v  -0.0089 0.0039 0.0011
v  -0.0089 0.0054 0.0011
v  -0.0084 0.0039 0.0033
v  -0.0084 0.0054 0.0033
v  -0.0073 0.0039 0.0053
v  -0.0073 0.0054 0.0053
v  -0.0057 0.0039 0.0069
v  -0.0057 0.0054 0.0069
v  -0.0038 0.0039 0.0081
v  -0.0038 0.0054 0.0081
v  -0.0017 0.0039 0.0088
v  -0.0017 0.0054 0.0088
v  0.0006 0.0039 0.0090
v  0.0006 0.0054 0.0090
v  0.0028 0.0039 0.0086
v  0.0028 0.0054 0.0086
v  0.0048 0.0039 0.0076
v  0.0048 0.0054 0.0076
v  0.0066 0.0039 0.0062
v  0.0066 0.0054 0.0062
v  0.0079 0.0039 0.0043
v  0.0079 0.0054 0.0043
v  0.0087 0.0039 0.0022
v  0.0087 0.0054 0.0022
v  0.0090 0.0039 0.0000
v  0.0090 0.0054 0.0000
v  0.0087 0.0039 -0.0022
v  0.0087 0.0054 -0.0022
v  0.0079 0.0039 -0.0043
v  0.0079 0.0054 -0.0043
v  0.0066 0.0039 -0.0062
v  0.0066 0.0054 -0.0062
v  0.0048 0.0039 -0.0076
v  0.0048 0.0054 -0.0076
v  0.0028 0.0039 -0.0086
v  0.0028 0.0054 -0.0086
v  0.0006 0.0039 -0.0090
v  0.0006 0.0054 -0.0090
v  -0.0017 0.0039 -0.0088
v  -0.0017 0.0054 -0.0088
v  -0.0038 0.0039 -0.0081
v  -0.0038 0.0054 -0.0081
v  -0.0057 0.0039 -0.0069
v  -0.0057 0.0054 -0.0069
v  -0.0073 0.0039 -0.0053
v  -0.0073 0.0054 -0.0053
v  -0.0084 0.0039 -0.0033
v  -0.0084 0.0054 -0.0033
v  -0.0089 0.0039 -0.0011
v  -0.0089 0.0054 -0.0011
v  0.0087 -0.0041 -0.0022
v  0.0090 -0.0041 0.0000
v  0.0090 -0.0056 0.0000
v  0.0089 -0.0056 -0.0011
v  0.0087 -0.0056 -0.0022
v  0.0079 -0.0041 -0.0043
v  0.0084 -0.0056 -0.0033
v  0.0079 -0.0056 -0.0043
v  0.0066 -0.0041 -0.0062
v  0.0073 -0.0056 -0.0053
v  0.0066 -0.0056 -0.0062
v  0.0048 -0.0041 -0.0076
v  0.0057 -0.0056 -0.0069
v  0.0048 -0.0056 -0.0076
v  0.0028 -0.0041 -0.0086
v  0.0038 -0.0056 -0.0081
v  0.0028 -0.0056 -0.0086
v  0.0006 -0.0041 -0.0090
v  0.0017 -0.0056 -0.0088
v  0.0006 -0.0056 -0.0090
v  -0.0017 -0.0041 -0.0088
v  -0.0006 -0.0056 -0.0090
v  -0.0017 -0.0056 -0.0088
v  -0.0038 -0.0041 -0.0081
v  -0.0028 -0.0056 -0.0086
v  -0.0038 -0.0056 -0.0081
v  -0.0057 -0.0041 -0.0069
v  -0.0048 -0.0056 -0.0076
v  -0.0057 -0.0056 -0.0069
v  -0.0073 -0.0041 -0.0053
v  -0.0066 -0.0056 -0.0062
v  -0.0073 -0.0056 -0.0053
v  -0.0079 -0.0056 -0.0043
v  -0.0084 -0.0041 -0.0033
v  -0.0084 -0.0056 -0.0033
v  -0.0087 -0.0056 -0.0022
v  -0.0089 -0.0041 -0.0011
v  -0.0089 -0.0056 -0.0011
v  -0.0090 -0.0041 -0.0000
v  -0.0090 -0.0056 -0.0000
v  -0.0089 -0.0041 0.0011
v  -0.0089 -0.0056 0.0011
v  -0.0087 -0.0056 0.0022
v  -0.0084 -0.0041 0.0033
v  -0.0084 -0.0056 0.0033
v  -0.0079 -0.0056 0.0043
v  -0.0073 -0.0041 0.0053
v  -0.0073 -0.0056 0.0053
v  -0.0066 -0.0056 0.0062
v  -0.0057 -0.0041 0.0069
v  -0.0057 -0.0056 0.0069
v  -0.0048 -0.0056 0.0076
v  -0.0038 -0.0041 0.0081
v  -0.0038 -0.0056 0.0081
v  -0.0028 -0.0056 0.0086
v  -0.0017 -0.0041 0.0088
v  -0.0017 -0.0056 0.0088
v  -0.0006 -0.0056 0.0090
v  0.0006 -0.0041 0.0090
v  0.0006 -0.0056 0.0090
v  0.0017 -0.0056 0.0088
v  0.0028 -0.0041 0.0086
v  0.0028 -0.0056 0.0086
v  0.0038 -0.0056 0.0081
v  0.0048 -0.0041 0.0076
v  0.0048 -0.0056 0.0076
v  0.0057 -0.0056 0.0069
v  0.0066 -0.0041 0.0062
v  0.0066 -0.0056 0.0062
v  0.0079 -0.0041 0.0043
v  0.0073 -0.0056 0.0053
v  0.0079 -0.0056 0.0043
v  0.0087 -0.0041 0.0022
v  0.0084 -0.0056 0.0033
v  0.0087 -0.0056 0.0022
v  0.0089 -0.0056 0.0011
v  0.0063 0.0064 -0.0166
v  0.0065 0.0062 -0.0166
v  0.0065 0.0064 -0.0168
v  -0.0050 0.0064 -0.0246
v  -0.0050 0.0044 -0.0246
v  -0.0050 0.0064 -0.0226
v  0.0015 0.0064 -0.0246
v  0.0015 -0.0066 -0.0246
v  -0.0050 -0.0066 -0.0246
v  -0.0050 -0.0046 -0.0246
v  -0.0175 -0.0046 -0.0246
v  -0.0175 0.0044 -0.0246
v  -0.0039 0.0002 0.0046
v  -0.0034 0.0002 0.0037
v  -0.0038 0.0005 0.0046
v  -0.0033 0.0005 0.0037
v  -0.0037 0.0008 0.0047
v  -0.0032 0.0008 0.0039
v  -0.0035 0.0009 0.0049
v  -0.0030 0.0009 0.0040
v  -0.0033 0.0011 0.0050
v  -0.0027 0.0011 0.0042
v  -0.0030 0.0011 0.0052
v  -0.0025 0.0011 0.0043
v  -0.0027 0.0011 0.0053
v  -0.0022 0.0011 0.0045
v  -0.0025 0.0009 0.0055
v  -0.0020 0.0009 0.0046
v  -0.0023 0.0008 0.0056
v  -0.0018 0.0008 0.0047
v  -0.0021 0.0005 0.0056
v  -0.0016 0.0005 0.0047
v  -0.0020 0.0002 0.0057
v  -0.0015 0.0002 0.0048
v  -0.0019 -0.0001 0.0057
v  -0.0014 -0.0001 0.0048
v  -0.0020 -0.0004 0.0057
v  -0.0015 -0.0004 0.0048
v  -0.0021 -0.0006 0.0056
v  -0.0016 -0.0006 0.0047
v  -0.0023 -0.0009 0.0056
v  -0.0018 -0.0009 0.0047
v  -0.0025 -0.0011 0.0055
v  -0.0020 -0.0011 0.0046
v  -0.0027 -0.0012 0.0053
v  -0.0022 -0.0012 0.0045
v  -0.0030 -0.0012 0.0052
v  -0.0025 -0.0012 0.0043
v  -0.0033 -0.0012 0.0050
v  -0.0027 -0.0012 0.0042
v  -0.0035 -0.0011 0.0049
v  -0.0030 -0.0011 0.0040
v  -0.0037 -0.0009 0.0047
v  -0.0032 -0.0009 0.0039
v  -0.0038 -0.0006 0.0046
v  -0.0033 -0.0006 0.0037
v  -0.0039 -0.0004 0.0046
v  -0.0034 -0.0004 0.0037
v  -0.0039 -0.0001 0.0045
v  -0.0034 -0.0001 0.0036
v  0.0065 0.0062 -0.0162
v  0.0063 0.0064 -0.0162
v  0.0049 0.0063 -0.0148
v  0.0048 0.0062 -0.0147
v  0.0055 0.0062 -0.0148
v  0.0049 0.0064 -0.0149
v  0.0054 0.0064 -0.0150
v  0.0060 0.0062 -0.0151
v  0.0059 0.0064 -0.0152
v  0.0064 0.0062 -0.0156
v  0.0062 0.0064 -0.0157
v  0.0025 0.0064 -0.0155
v  0.0024 0.0062 -0.0153
v  -0.0002 0.0062 -0.0155
v  -0.0002 0.0064 -0.0157
v  -0.0027 0.0062 -0.0153
v  -0.0028 0.0064 -0.0155
v  -0.0053 0.0062 -0.0146
v  -0.0053 0.0064 -0.0148
v  -0.0076 0.0062 -0.0135
v  -0.0077 0.0064 -0.0137
v  -0.0098 0.0062 -0.0120
v  -0.0099 0.0064 -0.0122
v  -0.0116 0.0062 -0.0102
v  -0.0118 0.0064 -0.0104
v  -0.0131 0.0064 -0.0098
v  -0.0131 0.0062 -0.0096
v  -0.0123 0.0062 -0.0097
v  -0.0124 0.0064 -0.0099
v  -0.0165 0.0062 -0.0096
v  -0.0165 0.0064 -0.0098
v  -0.0173 0.0064 -0.0106
v  -0.0175 0.0062 -0.0106
v  -0.0174 0.0062 -0.0102
v  -0.0172 0.0064 -0.0103
v  -0.0174 0.0062 -0.0101
v  -0.0171 0.0064 -0.0100
v  -0.0172 0.0062 -0.0099
v  -0.0170 0.0062 -0.0097
v  -0.0168 0.0064 -0.0098
v  -0.0169 0.0062 -0.0096
v  -0.0173 0.0064 -0.0176
v  -0.0174 0.0064 -0.0166
v  -0.0175 0.0062 -0.0160
v  -0.0175 0.0062 -0.0228
v  -0.0175 0.0062 -0.0192
v  -0.0173 0.0064 -0.0226
v  -0.0174 0.0064 -0.0185
v  0.0065 -0.0064 -0.0166
v  0.0063 -0.0066 -0.0166
v  0.0065 -0.0066 -0.0168
v  0.0063 -0.0066 -0.0162
v  0.0065 -0.0064 -0.0162
v  0.0049 -0.0065 -0.0148
v  0.0049 -0.0066 -0.0149
v  0.0054 -0.0066 -0.0150
v  0.0055 -0.0064 -0.0148
v  0.0048 -0.0064 -0.0147
v  0.0059 -0.0066 -0.0152
v  0.0060 -0.0064 -0.0151
v  0.0062 -0.0066 -0.0157
v  0.0064 -0.0064 -0.0156
v  0.0024 -0.0064 -0.0153
v  -0.0116 -0.0064 -0.0102
v  -0.0118 -0.0066 -0.0104
v  -0.0098 -0.0064 -0.0120
v  -0.0099 -0.0066 -0.0122
v  -0.0076 -0.0064 -0.0135
v  -0.0077 -0.0066 -0.0137
v  -0.0053 -0.0064 -0.0146
v  -0.0053 -0.0066 -0.0148
v  -0.0027 -0.0064 -0.0153
v  -0.0028 -0.0066 -0.0155
v  -0.0002 -0.0064 -0.0155
v  -0.0002 -0.0066 -0.0157
v  0.0025 -0.0066 -0.0155
v  -0.0123 -0.0064 -0.0097
v  -0.0124 -0.0066 -0.0099
v  -0.0131 -0.0064 -0.0096
v  -0.0131 -0.0066 -0.0098
v  -0.0165 -0.0066 -0.0098
v  -0.0165 -0.0064 -0.0096
v  -0.0170 -0.0064 -0.0097
v  -0.0169 -0.0066 -0.0099
v  -0.0172 -0.0064 -0.0099
v  -0.0172 -0.0066 -0.0102
v  -0.0174 -0.0064 -0.0101
v  -0.0175 -0.0064 -0.0106
v  -0.0173 -0.0066 -0.0106
v  -0.0175 -0.0064 -0.0160
v  -0.0174 -0.0065 -0.0166
v  -0.0173 -0.0066 -0.0176
v  -0.0174 -0.0065 -0.0185
v  -0.0173 -0.0066 -0.0226
v  -0.0175 -0.0064 -0.0192
v  -0.0175 -0.0064 -0.0228
v  0.0044 -0.0061 -0.0032
v  0.0052 -0.0061 -0.0017
v  0.0048 -0.0056 -0.0015
v  0.0044 -0.0056 -0.0024
v  0.0040 -0.0056 -0.0029
v  0.0032 -0.0061 -0.0044
v  0.0034 -0.0056 -0.0037
v  0.0029 -0.0056 -0.0040
v  0.0017 -0.0061 -0.0052
v  0.0020 -0.0056 -0.0046
v  0.0015 -0.0056 -0.0048
v  0.0000 -0.0061 -0.0055
v  0.0004 -0.0056 -0.0050
v  0.0000 -0.0056 -0.0050
v  -0.0017 -0.0061 -0.0052
v  -0.0012 -0.0056 -0.0048
v  -0.0015 -0.0056 -0.0048
v  -0.0032 -0.0061 -0.0044
v  -0.0027 -0.0056 -0.0042
v  -0.0029 -0.0056 -0.0040
v  -0.0044 -0.0061 -0.0032
v  -0.0039 -0.0056 -0.0031
v  -0.0040 -0.0056 -0.0029
v  -0.0052 -0.0061 -0.0017
v  -0.0047 -0.0056 -0.0016
v  -0.0048 -0.0056 -0.0015
v  -0.0055 -0.0061 -0.0000
v  -0.0050 -0.0056 -0.0000
v  -0.0052 -0.0061 0.0017
v  -0.0048 -0.0056 0.0015
v  -0.0047 -0.0056 0.0016
v  -0.0044 -0.0061 0.0032
v  -0.0040 -0.0056 0.0029
v  -0.0039 -0.0056 0.0031
v  -0.0032 -0.0061 0.0044
v  -0.0029 -0.0056 0.0040
v  -0.0027 -0.0056 0.0042
v  -0.0017 -0.0061 0.0052
v  -0.0015 -0.0056 0.0048
v  -0.0012 -0.0056 0.0048
v  -0.0000 -0.0061 0.0055
v  0.0000 -0.0056 0.0050
v  0.0004 -0.0056 0.0050
v  0.0017 -0.0061 0.0052
v  0.0015 -0.0056 0.0048
v  0.0020 -0.0056 0.0046
v  0.0032 -0.0061 0.0044
v  0.0029 -0.0056 0.0040
v  0.0034 -0.0056 0.0037
v  0.0044 -0.0061 0.0032
v  0.0040 -0.0056 0.0029
v  0.0044 -0.0056 0.0024
v  0.0052 -0.0061 0.0017
v  0.0048 -0.0056 0.0015
v  0.0049 -0.0056 0.0008
v  0.0055 -0.0061 0.0000
v  0.0050 -0.0056 0.0000
v  0.0049 -0.0056 -0.0008
v  -0.0044 0.0059 -0.0032
v  -0.0052 0.0059 -0.0017
v  -0.0047 0.0054 -0.0016
v  -0.0040 0.0054 -0.0029
v  -0.0039 0.0054 -0.0031
v  -0.0032 0.0059 -0.0044
v  -0.0029 0.0054 -0.0040
v  -0.0027 0.0054 -0.0042
v  -0.0017 0.0059 -0.0052
v  -0.0015 0.0054 -0.0048
v  -0.0012 0.0054 -0.0048
v  0.0000 0.0059 -0.0055
v  0.0000 0.0054 -0.0050
v  0.0004 0.0054 -0.0050
v  0.0017 0.0059 -0.0052
v  0.0015 0.0054 -0.0048
v  0.0020 0.0054 -0.0046
v  0.0032 0.0059 -0.0044
v  0.0029 0.0054 -0.0040
v  0.0034 0.0054 -0.0037
v  0.0044 0.0059 -0.0032
v  0.0040 0.0054 -0.0029
v  0.0044 0.0054 -0.0024
v  0.0052 0.0059 -0.0017
v  0.0048 0.0054 -0.0015
v  0.0049 0.0054 -0.0008
v  0.0055 0.0059 0.0000
v  0.0050 0.0054 0.0000
v  0.0052 0.0059 0.0017
v  0.0049 0.0054 0.0008
v  0.0048 0.0054 0.0015
v  0.0044 0.0059 0.0032
v  0.0044 0.0054 0.0024
v  0.0040 0.0054 0.0029
v  0.0032 0.0059 0.0044
v  0.0034 0.0054 0.0037
v  0.0029 0.0054 0.0040
v  0.0017 0.0059 0.0052
v  0.0020 0.0054 0.0046
v  0.0015 0.0054 0.0048
v  -0.0000 0.0059 0.0055
v  0.0004 0.0054 0.0050
v  -0.0000 0.0054 0.0050
v  -0.0017 0.0059 0.0052
v  -0.0012 0.0054 0.0048
v  -0.0015 0.0054 0.0048
v  -0.0032 0.0059 0.0044
v  -0.0027 0.0054 0.0042
v  -0.0029 0.0054 0.0040
v  -0.0044 0.0059 0.0032
v  -0.0039 0.0054 0.0031
v  -0.0040 0.0054 0.0029
v  -0.0052 0.0059 0.0017
v  -0.0047 0.0054 0.0016
v  -0.0048 0.0054 0.0015
v  -0.0055 0.0059 -0.0000
v  -0.0050 0.0054 0.0000
v  -0.0048 0.0054 -0.0015
v  -0.0082 -0.0061 -0.0021
v  -0.0085 -0.0061 -0.0000
v  -0.0074 -0.0061 -0.0041
v  -0.0062 -0.0061 -0.0058
v  -0.0046 -0.0061 -0.0072
v  -0.0026 -0.0061 -0.0081
v  -0.0005 -0.0061 -0.0085
v  0.0016 -0.0061 -0.0083
v  0.0036 -0.0061 -0.0077
v  0.0054 -0.0061 -0.0065
v  0.0069 -0.0061 -0.0050
v  0.0079 -0.0061 -0.0031
v  0.0084 -0.0061 -0.0011
v  0.0085 -0.0061 0.0000
v  0.0084 -0.0061 0.0011
v  0.0079 -0.0061 0.0031
v  0.0069 -0.0061 0.0050
v  0.0054 -0.0061 0.0065
v  0.0036 -0.0061 0.0077
v  0.0016 -0.0061 0.0083
v  -0.0005 -0.0061 0.0085
v  -0.0026 -0.0061 0.0081
v  -0.0046 -0.0061 0.0072
v  -0.0062 -0.0061 0.0058
v  -0.0074 -0.0061 0.0041
v  -0.0082 -0.0061 0.0021
v  0.0082 0.0059 0.0021
v  0.0074 0.0059 0.0041
v  0.0062 0.0059 0.0058
v  0.0046 0.0059 0.0072
v  0.0026 0.0059 0.0081
v  0.0005 0.0059 0.0085
v  -0.0016 0.0059 0.0083
v  -0.0036 0.0059 0.0077
v  -0.0054 0.0059 0.0065
v  -0.0069 0.0059 0.0050
v  -0.0079 0.0059 0.0031
v  -0.0084 0.0059 0.0011
v  -0.0084 0.0059 -0.0011
v  -0.0079 0.0059 -0.0031
v  -0.0069 0.0059 -0.0050
v  -0.0054 0.0059 -0.0065
v  -0.0036 0.0059 -0.0077
v  -0.0016 0.0059 -0.0083
v  0.0005 0.0059 -0.0085
v  0.0026 0.0059 -0.0081
v  0.0046 0.0059 -0.0072
v  0.0062 0.0059 -0.0058
v  0.0074 0.0059 -0.0041
v  0.0082 0.0059 -0.0021
v  0.0085 0.0059 0.0000
v  0.0036 -0.0011 0.0034
v  0.0044 -0.0009 0.0040
v  0.0039 -0.0007 0.0032
v  0.0046 -0.0006 0.0039
v  0.0039 -0.0006 0.0031
v  0.0040 -0.0004 0.0030
v  0.0046 -0.0004 0.0038
v  0.0040 -0.0001 0.0030
v  0.0047 -0.0001 0.0038
v  0.0040 0.0002 0.0030
v  0.0046 0.0002 0.0038
v  0.0039 0.0005 0.0031
v  0.0046 0.0005 0.0039
v  0.0038 0.0008 0.0033
v  0.0044 0.0008 0.0040
v  0.0036 0.0009 0.0034
v  0.0043 0.0009 0.0042
v  0.0034 0.0011 0.0037
v  0.0041 0.0011 0.0044
v  0.0032 0.0011 0.0038
v  0.0039 0.0011 0.0046
v  0.0030 0.0011 0.0040
v  0.0036 0.0011 0.0048
v  0.0028 0.0009 0.0042
v  0.0034 0.0009 0.0049
v  0.0025 0.0008 0.0043
v  0.0032 0.0008 0.0051
v  0.0024 0.0005 0.0044
v  0.0030 0.0005 0.0052
v  0.0023 0.0002 0.0044
v  0.0029 0.0002 0.0052
v  0.0022 -0.0001 0.0045
v  0.0029 -0.0001 0.0053
v  0.0023 -0.0004 0.0044
v  0.0029 -0.0004 0.0052
v  0.0024 -0.0006 0.0044
v  0.0030 -0.0006 0.0052
v  0.0025 -0.0009 0.0043
v  0.0032 -0.0009 0.0051
v  0.0028 -0.0011 0.0042
v  0.0034 -0.0011 0.0049
v  0.0030 -0.0012 0.0040
v  0.0036 -0.0012 0.0048
v  0.0032 -0.0012 0.0038
v  0.0039 -0.0012 0.0046
v  0.0034 -0.0012 0.0037
v  0.0041 -0.0012 0.0044
v  0.0043 -0.0011 0.0042
v  -0.0131 0.0039 -0.0096
v  -0.0123 0.0039 -0.0097
v  -0.0116 0.0039 -0.0102
v  -0.0116 -0.0041 -0.0102
v  -0.0123 -0.0041 -0.0097
v  -0.0131 -0.0041 -0.0096
v  -0.0175 -0.0041 -0.0106
v  -0.0174 -0.0041 -0.0102
v  -0.0172 -0.0041 -0.0099
v  -0.0169 -0.0041 -0.0096
v  -0.0165 -0.0041 -0.0096
v  -0.0175 0.0039 -0.0106
v  -0.0174 0.0039 -0.0101
v  -0.0170 0.0039 -0.0097
v  -0.0165 0.0039 -0.0096
v  -0.0050 -0.0066 -0.0226
v  -0.0245 -0.0001 -0.0116
v  -0.0245 -0.0010 -0.0116
v  -0.0185 -0.0010 -0.0116
v  -0.0245 -0.0027 -0.0122
v  -0.0185 -0.0027 -0.0122
v  -0.0245 -0.0041 -0.0132
v  -0.0185 -0.0041 -0.0132
v  -0.0245 -0.0053 -0.0146
v  -0.0185 -0.0053 -0.0146
v  -0.0245 -0.0059 -0.0162
v  -0.0185 -0.0059 -0.0162
v  -0.0245 -0.0060 -0.0180
v  -0.0185 -0.0060 -0.0180
v  -0.0245 -0.0056 -0.0197
v  -0.0185 -0.0056 -0.0197
v  -0.0245 -0.0047 -0.0213
v  -0.0185 -0.0047 -0.0213
v  -0.0245 -0.0034 -0.0225
v  -0.0185 -0.0034 -0.0225
v  -0.0245 -0.0018 -0.0233
v  -0.0185 -0.0018 -0.0233
v  -0.0245 -0.0001 -0.0236
v  -0.0185 -0.0001 -0.0236
v  -0.0245 0.0017 -0.0233
v  -0.0185 0.0017 -0.0233
v  -0.0245 0.0033 -0.0225
v  -0.0185 0.0033 -0.0225
v  -0.0245 0.0046 -0.0213
v  -0.0185 0.0046 -0.0213
v  -0.0245 0.0055 -0.0197
v  -0.0185 0.0055 -0.0197
v  -0.0245 0.0059 -0.0180
v  -0.0185 0.0059 -0.0180
v  -0.0245 0.0058 -0.0162
v  -0.0185 0.0058 -0.0162
v  -0.0245 0.0051 -0.0146
v  -0.0185 0.0051 -0.0146
v  -0.0245 0.0040 -0.0132
v  -0.0185 0.0040 -0.0132
v  -0.0245 0.0025 -0.0122
v  -0.0185 0.0025 -0.0122
v  -0.0245 0.0008 -0.0116
v  -0.0185 0.0008 -0.0116
v  -0.0185 -0.0060 -0.0149
v  -0.0185 -0.0065 -0.0166
v  -0.0185 -0.0065 -0.0185
v  -0.0175 -0.0060 -0.0203
v  -0.0185 -0.0060 -0.0203
v  -0.0185 -0.0050 -0.0218
v  -0.0175 -0.0050 -0.0218
v  -0.0185 -0.0036 -0.0230
v  -0.0175 -0.0036 -0.0230
v  -0.0185 -0.0019 -0.0238
v  -0.0175 -0.0019 -0.0238
v  -0.0185 -0.0001 -0.0241
v  -0.0175 -0.0001 -0.0241
v  -0.0185 0.0018 -0.0238
v  -0.0175 0.0018 -0.0238
v  -0.0185 0.0035 -0.0230
v  -0.0175 0.0035 -0.0230
v  -0.0185 0.0049 -0.0218
v  -0.0175 0.0049 -0.0218
v  -0.0185 0.0059 -0.0203
v  -0.0175 0.0059 -0.0203
v  -0.0185 0.0064 -0.0185
v  -0.0175 0.0059 -0.0149
v  -0.0185 0.0064 -0.0166
v  -0.0175 -0.0060 -0.0149
v  -0.0175 -0.0050 -0.0133
v  -0.0185 -0.0050 -0.0133
v  -0.0175 -0.0036 -0.0121
v  -0.0185 -0.0036 -0.0121
v  -0.0175 -0.0019 -0.0113
v  -0.0185 -0.0019 -0.0113
v  -0.0175 -0.0001 -0.0111
v  -0.0185 -0.0001 -0.0111
v  -0.0175 0.0018 -0.0113
v  -0.0185 0.0018 -0.0113
v  -0.0175 0.0035 -0.0121
v  -0.0185 0.0035 -0.0121
v  -0.0175 0.0049 -0.0133
v  -0.0185 0.0049 -0.0133
v  -0.0185 0.0059 -0.0149
v  0.0037 0.0064 -0.0243
v  0.0112 0.0064 -0.0168
v  0.0105 0.0064 -0.0189
v  0.0093 0.0064 -0.0208
v  0.0077 0.0064 -0.0224
v  0.0058 0.0064 -0.0236
v  -0.0175 -0.0041 -0.0025
v  -0.0175 0.0039 -0.0025
v  0.0105 -0.0066 -0.0189
v  0.0112 -0.0066 -0.0168
v  0.0037 -0.0066 -0.0243
v  0.0058 -0.0066 -0.0236
v  0.0077 -0.0066 -0.0224
v  0.0093 -0.0066 -0.0208
v  0.0065 -0.0041 -0.0162
v  0.0064 -0.0041 -0.0156
v  0.0060 -0.0041 -0.0151
v  0.0055 -0.0041 -0.0148
v  0.0048 -0.0041 -0.0147
v  0.0023 -0.0041 -0.0153
v  -0.0002 -0.0041 -0.0155
v  -0.0028 -0.0041 -0.0152
v  -0.0053 -0.0041 -0.0146
v  -0.0076 -0.0041 -0.0135
v  -0.0098 -0.0041 -0.0120
v  -0.0098 0.0039 -0.0120
v  -0.0076 0.0039 -0.0135
v  -0.0053 0.0039 -0.0146
v  -0.0028 0.0039 -0.0152
v  -0.0002 0.0039 -0.0155
v  0.0023 0.0039 -0.0153
v  0.0048 0.0039 -0.0147
v  0.0065 0.0039 -0.0162
v  0.0064 0.0039 -0.0156
v  0.0060 0.0039 -0.0151
v  0.0055 0.0039 -0.0148
v  0.0115 -0.0041 0.0029
v  0.0112 -0.0041 0.0051
v  0.0105 -0.0041 0.0072
v  0.0093 -0.0041 0.0091
v  0.0065 -0.0041 -0.0104
v  0.0115 -0.0041 -0.0066
v  0.0115 -0.0041 -0.0104
v  -0.0050 -0.0041 0.0112
v  -0.0130 -0.0041 0.0059
v  0.0015 -0.0041 0.0129
v  0.0005 -0.0041 0.0129
v  -0.0146 -0.0041 0.0046
v  -0.0033 -0.0041 0.0121
v  -0.0014 -0.0041 0.0127
v  0.0077 -0.0041 0.0107
v  0.0058 -0.0041 0.0119
v  0.0037 -0.0041 0.0126
v  -0.0158 -0.0041 0.0031
v  -0.0167 -0.0041 0.0014
v  -0.0173 -0.0041 -0.0005
v  0.0114 0.0039 -0.0162
v  0.0115 0.0039 -0.0146
v  0.0115 0.0039 0.0029
v  0.0112 0.0039 0.0051
v  0.0105 0.0039 0.0072
v  -0.0014 0.0039 0.0127
v  0.0058 0.0039 0.0119
v  0.0077 0.0039 0.0107
v  0.0093 0.0039 0.0091
v  -0.0033 0.0039 0.0121
v  -0.0050 0.0039 0.0112
v  -0.0130 0.0039 0.0059
v  -0.0146 0.0039 0.0046
v  0.0005 0.0039 0.0129
v  0.0015 0.0039 0.0129
v  0.0037 0.0039 0.0126
v  -0.0173 0.0039 -0.0005
v  -0.0167 0.0039 0.0014
v  -0.0158 0.0039 0.0031
v  0.0036 -0.0001 0.0048
v  0.0040 -0.0001 0.0045
v  -0.0032 -0.0001 0.0050
v  -0.0029 -0.0001 0.0053
v  -0.0245 0.0019 -0.0191
v  -0.0245 0.0010 -0.0198
v  -0.0245 -0.0001 -0.0201
v  -0.0245 -0.0011 -0.0153
v  -0.0245 -0.0020 -0.0160
v  -0.0245 -0.0011 -0.0198
v  -0.0245 -0.0020 -0.0191
v  -0.0245 -0.0025 -0.0181
v  -0.0245 0.0024 -0.0170
v  -0.0245 0.0024 -0.0181
v  -0.0245 -0.0001 -0.0151
v  -0.0245 -0.0025 -0.0170
v  -0.0245 0.0019 -0.0160
v  -0.0245 0.0010 -0.0153
v  -0.0190 -0.0001 -0.0176
v  -0.0205 -0.0001 -0.0151
v  -0.0205 0.0010 -0.0153
v  -0.0205 0.0024 -0.0170
v  -0.0205 0.0024 -0.0181
v  -0.0205 0.0019 -0.0160
v  -0.0205 0.0010 -0.0198
v  -0.0205 -0.0001 -0.0201
v  -0.0205 0.0019 -0.0191
v  -0.0205 -0.0020 -0.0191
v  -0.0205 -0.0025 -0.0181
v  -0.0205 -0.0011 -0.0198
v  -0.0205 -0.0020 -0.0160
v  -0.0205 -0.0011 -0.0153
v  -0.0205 -0.0025 -0.0170
v  0.0115 -0.0041 -0.0146
v  0.0114 -0.0041 -0.0162
v  0.0114 0.0062 -0.0162
v  0.0113 0.0062 -0.0166
v  0.0113 -0.0064 -0.0166
v  0.0114 -0.0064 -0.0162
# 711 vertices

vn -0.9998 0.0194 -0.0000
vn -0.9877 -0.0000 0.1564
vn -0.9903 0.0140 0.1381
vn -0.9298 0.0000 0.3681
vn -0.8090 0.0000 0.5878
vn -0.6374 -0.0000 0.7705
vn -0.4258 -0.0000 0.9048
vn -0.1874 0.0000 0.9823
vn 0.0628 0.0000 0.9980
vn 0.3090 0.0000 0.9511
vn 0.5358 0.0000 0.8443
vn 0.7290 0.0000 0.6845
vn 0.8763 0.0000 0.4818
vn 0.9686 0.0000 0.2487
vn 1.0000 -0.0000 0.0000
vn 0.9686 0.0000 -0.2487
vn 0.8763 -0.0000 -0.4818
vn 0.7290 -0.0000 -0.6845
vn 0.5358 -0.0000 -0.8443
vn 0.5358 0.0000 -0.8443
vn 0.3090 0.0000 -0.9511
vn 0.0628 0.0000 -0.9980
vn -0.1874 0.0000 -0.9823
vn -0.4258 -0.0000 -0.9048
vn -0.6374 -0.0000 -0.7705
vn -0.8090 -0.0000 -0.5878
vn -0.9298 0.0000 -0.3681
vn -0.9877 0.0000 -0.1564
vn -0.9903 0.0140 -0.1381
vn 0.9670 0.0103 -0.2546
vn 0.9999 0.0103 -0.0061
vn 0.9996 0.0177 -0.0197
vn 0.9928 0.0665 -0.0996
vn 0.9634 0.0177 -0.2676
vn 0.8733 0.0103 -0.4871
vn 0.9368 0.0665 -0.3434
vn 0.8665 0.0177 -0.4988
vn 0.7247 0.0103 -0.6890
vn 0.8220 0.0665 -0.5656
vn 0.7153 0.0177 -0.6986
vn 0.5306 0.0103 -0.8476
vn 0.6555 0.0665 -0.7522
vn 0.5190 0.0177 -0.8546
vn 0.3032 0.0103 -0.9529
vn 0.4479 0.0665 -0.8916
vn 0.2902 0.0177 -0.9568
vn 0.0567 0.0103 -0.9983
vn 0.2121 0.0665 -0.9750
vn 0.0431 0.0177 -0.9989
vn -0.1934 0.0103 -0.9811
vn -0.0371 0.0665 -0.9971
vn -0.2066 0.0177 -0.9783
vn -0.4313 0.0103 -0.9022
vn -0.2839 0.0665 -0.9566
vn -0.4434 0.0177 -0.8961
vn -0.6421 0.0103 -0.7666
vn -0.5128 0.0665 -0.8559
vn -0.6524 0.0177 -0.7577
vn -0.8048 0.0243 -0.5931
vn -0.7096 0.0665 -0.7015
vn -0.8090 0.0000 -0.5878
vn -0.8761 0.0194 -0.4817
vn -0.9294 0.0280 -0.3680
vn -0.9298 -0.0000 -0.3681
vn -0.9684 0.0194 -0.2486
vn -0.9895 0.0140 -0.1436
vn -0.9921 -0.0000 -0.1253
vn -1.0000 -0.0000 -0.0000
vn -0.9895 0.0140 0.1436
vn -0.9921 0.0000 0.1253
vn -0.9684 0.0194 0.2486
vn -0.9294 0.0280 0.3680
vn -0.9298 -0.0000 0.3681
vn -0.8761 0.0194 0.4817
vn -0.8087 0.0280 0.5876
vn -0.8090 -0.0000 0.5878
vn -0.7288 0.0194 0.6844
vn -0.6372 0.0280 0.7702
vn -0.5357 0.0194 0.8442
vn -0.4256 0.0280 0.9045
vn -0.3090 0.0194 0.9509
vn -0.1873 0.0280 0.9819
vn -0.0628 0.0194 0.9978
vn 0.0628 0.0280 0.9976
vn 0.1873 0.0194 0.9821
vn 0.3089 0.0280 0.9507
vn 0.4257 0.0194 0.9047
vn 0.5356 0.0280 0.8440
vn 0.6373 0.0194 0.7704
vn 0.7377 0.0140 0.6750
vn 0.7422 0.0177 0.6700
vn 0.8792 0.0103 0.4763
vn 0.7919 0.0665 0.6070
vn 0.8855 0.0177 0.4644
vn 0.9700 0.0103 0.2427
vn 0.9180 0.0665 0.3910
vn 0.9731 0.0177 0.2296
vn 0.9864 0.0665 0.1504
vn 0.7310 0.6611 0.1689
vn 0.4954 0.7255 0.4777
vn 0.2880 0.6772 0.6771
vn -1.0000 -0.0000 0.0000
vn 0.0000 -0.0000 -1.0000
vn 0.0000 0.0000 -1.0000
vn 0.0561 -0.0000 -0.9984
vn 0.0561 0.0000 -0.9984
vn 0.8357 -0.2625 0.4825
vn 0.8376 -0.2542 0.4836
vn 0.7471 -0.5058 0.4313
vn 0.7535 -0.4929 0.4350
vn 0.6076 -0.7126 0.3508
vn 0.6180 -0.7005 0.3568
vn 0.4280 -0.8693 0.2471
vn 0.4354 -0.8640 0.2527
vn 0.2211 -0.9670 0.1263
vn 0.2179 -0.9677 0.1268
vn -0.0041 -1.0000 -0.0033
vn -0.0041 -1.0000 -0.0030
vn -0.2239 -0.9661 -0.1285
vn -0.2279 -0.9647 -0.1318
vn -0.4287 -0.8690 -0.2472
vn -0.4391 -0.8620 -0.2535
vn -0.6077 -0.7125 -0.3508
vn -0.6181 -0.7004 -0.3569
vn -0.7471 -0.5058 -0.4313
vn -0.7535 -0.4929 -0.4350
vn -0.8356 -0.2627 -0.4824
vn -0.8375 -0.2544 -0.4836
vn -0.8660 0.0000 -0.5000
vn -0.8356 0.2628 -0.4824
vn -0.8375 0.2544 -0.4835
vn -0.7471 0.5058 -0.4313
vn -0.7535 0.4930 -0.4350
vn -0.6077 0.7125 -0.3509
vn -0.6181 0.7004 -0.3569
vn -0.4286 0.8689 -0.2475
vn -0.4392 0.8619 -0.2534
vn -0.2222 0.9665 -0.1285
vn -0.2280 0.9648 -0.1314
vn -0.0005 1.0000 -0.0005
vn -0.0030 1.0000 -0.0032
vn 0.2210 0.9667 0.1291
vn 0.2193 0.9676 0.1252
vn 0.4264 0.8699 0.2478
vn 0.4354 0.8644 0.2514
vn 0.6076 0.7125 0.3508
vn 0.6181 0.7005 0.3568
vn 0.7470 0.5060 0.4313
vn 0.7534 0.4931 0.4350
vn 0.8355 0.2631 0.4824
vn 0.8375 0.2547 0.4835
vn 0.8660 0.0003 0.5000
vn 0.8660 0.0002 0.5000
vn 0.7053 0.7053 0.0712
vn 0.7049 0.7050 0.0783
vn -0.0463 0.7057 0.7070
vn -0.0548 0.7062 0.7059
vn 0.2175 0.7059 0.6741
vn -0.0386 0.7065 0.7067
vn 0.2188 0.7071 0.6724
vn 0.4708 0.7071 0.5276
vn 0.6453 0.7071 0.2890
vn 0.6453 0.7071 0.2891
vn -0.1093 0.7072 0.6985
vn -0.1093 0.7072 0.6986
vn 0.0075 0.7071 0.7070
vn 0.1255 0.7071 0.6959
vn 0.2399 0.7071 0.6652
vn 0.3476 0.7071 0.6158
vn 0.4455 0.7071 0.5491
vn 0.4608 0.7034 0.5412
vn 0.4564 0.7030 0.5454
vn 0.0790 0.7049 0.7049
vn 0.0718 0.7053 0.7053
vn 0.2914 0.7071 0.6443
vn -0.0666 0.7055 0.7056
vn -0.0728 0.7052 0.7053
vn -0.7052 0.7053 0.0728
vn -0.7055 0.7056 0.0666
vn -0.6694 0.7065 0.2299
vn -0.6484 0.7179 0.2533
vn -0.5942 0.7143 0.3698
vn -0.4887 0.7228 0.4887
vn -0.5000 0.7071 0.5000
vn -0.3698 0.7143 0.5942
vn -0.2533 0.7179 0.6485
vn -0.2299 0.7064 0.6694
vn -0.7071 0.7071 -0.0000
vn -0.7071 0.7071 0.0000
vn 0.7345 -0.6269 0.2597
vn 0.7311 -0.6611 0.1689
vn 0.7071 -0.5000 0.5000
vn 0.7050 -0.7049 0.0783
vn 0.7053 -0.7053 0.0712
vn -0.0452 -0.7062 0.7066
vn -0.0362 -0.7052 0.7081
vn 0.2177 -0.7065 0.6734
vn 0.2167 -0.7065 0.6737
vn -0.0548 -0.7061 0.7060
vn 0.4708 -0.7071 0.5276
vn 0.6453 -0.7071 0.2891
vn -0.1093 -0.7072 0.6985
vn 0.4608 -0.7034 0.5412
vn 0.4565 -0.7030 0.5454
vn 0.4455 -0.7071 0.5491
vn 0.3476 -0.7071 0.6158
vn 0.2399 -0.7071 0.6652
vn 0.1255 -0.7071 0.6959
vn 0.0075 -0.7071 0.7071
vn -0.1094 -0.7072 0.6985
vn 0.2914 -0.7071 0.6443
vn 0.0718 -0.7053 0.7053
vn 0.0790 -0.7049 0.7049
vn -0.0987 -0.7037 0.7037
vn -0.0877 -0.7044 0.7044
vn -0.3163 -0.7065 0.6332
vn -0.3235 -0.7225 0.6110
vn -0.4868 -0.7252 0.4869
vn -0.6110 -0.7225 0.3236
vn -0.6332 -0.7065 0.3163
vn -0.7044 -0.7043 0.0877
vn -0.7037 -0.7036 0.0987
vn -0.7071 -0.7071 -0.0000
vn -0.5744 -0.6977 0.4281
vn -0.6782 -0.6981 0.2295
vn -0.6739 -0.6968 0.2457
vn -0.6989 -0.6349 0.3293
vn -0.5617 -0.6980 0.4442
vn -0.4142 -0.6975 0.5847
vn -0.5497 -0.6466 0.5289
vn -0.3932 -0.6992 0.5971
vn -0.2136 -0.6976 0.6839
vn -0.3468 -0.6577 0.6687
vn -0.1855 -0.7003 0.6893
vn 0.0074 -0.6979 0.7161
vn -0.1124 -0.6680 0.7357
vn 0.0403 -0.7015 0.7115
vn 0.2272 -0.6987 0.6784
vn 0.1286 -0.6774 0.7243
vn 0.2612 -0.7026 0.6619
vn 0.4239 -0.6999 0.5748
vn 0.3511 -0.6860 0.6373
vn 0.4551 -0.7038 0.5455
vn 0.5785 -0.7017 0.4159
vn 0.5325 -0.6936 0.4852
vn 0.6024 -0.7049 0.3745
vn 0.6759 -0.7041 0.2177
vn 0.6546 -0.7002 0.2848
vn 0.6884 -0.7061 0.1662
vn 0.7071 -0.7071 -0.0000
vn 0.6775 -0.7030 -0.2164
vn 0.6884 -0.7060 -0.1662
vn 0.6542 -0.7019 -0.2817
vn 0.5817 -0.6986 -0.4167
vn 0.6000 -0.7063 -0.3758
vn 0.5334 -0.6977 -0.4782
vn 0.4270 -0.6952 -0.5783
vn 0.4497 -0.7065 -0.5465
vn 0.3556 -0.6936 -0.6265
vn 0.2285 -0.6925 -0.6843
vn 0.2530 -0.7066 -0.6608
vn 0.1393 -0.6895 -0.7107
vn 0.0057 -0.6904 -0.7234
vn 0.0304 -0.7068 -0.7068
vn -0.0931 -0.6859 -0.7217
vn -0.2191 -0.6889 -0.6909
vn -0.1953 -0.7069 -0.6798
vn -0.3175 -0.6827 -0.6581
vn -0.4233 -0.6879 -0.5896
vn -0.4008 -0.7070 -0.5827
vn -0.5104 -0.6803 -0.5260
vn -0.5860 -0.6872 -0.4294
vn -0.5649 -0.7071 -0.4254
vn -0.6515 -0.6786 -0.3393
vn -0.6908 -0.6868 -0.2260
vn -0.6706 -0.7071 -0.2243
vn -0.7259 -0.6777 -0.1172
vn -0.7171 -0.6969 0.0135
vn -0.7181 -0.6956 0.0217
vn -0.7776 -0.6223 0.0897
vn 0.5816 0.6986 0.4167
vn 0.6775 0.7030 0.2164
vn 0.6542 0.7019 0.2817
vn 0.6000 0.7063 0.3758
vn 0.5333 0.6978 0.4782
vn 0.4270 0.6951 0.5783
vn 0.4497 0.7065 0.5465
vn 0.3556 0.6935 0.6265
vn 0.2285 0.6925 0.6843
vn 0.2530 0.7066 0.6608
vn 0.1393 0.6895 0.7107
vn 0.0057 0.6905 0.7234
vn 0.0304 0.7068 0.7068
vn -0.0931 0.6859 0.7217
vn -0.2191 0.6889 0.6909
vn -0.1953 0.7069 0.6798
vn -0.3175 0.6827 0.6581
vn -0.4233 0.6879 0.5896
vn -0.4008 0.7070 0.5827
vn -0.5104 0.6803 0.5260
vn -0.5860 0.6872 0.4294
vn -0.5649 0.7071 0.4254
vn -0.6515 0.6786 0.3393
vn -0.6908 0.6868 0.2260
vn -0.6706 0.7071 0.2243
vn -0.7259 0.6777 0.1172
vn -0.7171 0.6969 -0.0135
vn -0.7181 0.6956 -0.0217
vn -0.6782 0.6981 -0.2295
vn -0.7776 0.6223 -0.0897
vn -0.6739 0.6968 -0.2457
vn -0.5744 0.6977 -0.4281
vn -0.6989 0.6349 -0.3293
vn -0.5617 0.6980 -0.4442
vn -0.4142 0.6975 -0.5847
vn -0.5497 0.6467 -0.5289
vn -0.3932 0.6992 -0.5971
vn -0.2136 0.6976 -0.6839
vn -0.3468 0.6577 -0.6687
vn -0.1855 0.7003 -0.6893
vn 0.0074 0.6979 -0.7161
vn -0.1124 0.6680 -0.7357
vn 0.0402 0.7015 -0.7115
vn 0.2272 0.6987 -0.6784
vn 0.1286 0.6774 -0.7243
vn 0.2612 0.7027 -0.6618
vn 0.4239 0.6999 -0.5748
vn 0.3511 0.6860 -0.6373
vn 0.4551 0.7038 -0.5455
vn 0.5785 0.7017 -0.4159
vn 0.5325 0.6936 -0.4852
vn 0.6024 0.7049 -0.3744
vn 0.6759 0.7041 -0.2177
vn 0.6546 0.7002 -0.2848
vn 0.6884 0.7060 -0.1662
vn 0.7071 0.7071 0.0000
vn 0.6884 0.7061 0.1662
vn -0.6677 -0.7244 -0.1714
vn -0.6894 -0.7244 -0.0000
vn -0.6735 -0.7343 -0.0851
vn -0.6849 -0.7071 -0.1758
vn -0.6312 -0.7343 -0.2499
vn -0.6046 -0.7157 -0.3496
vn -0.6030 -0.7167 -0.3503
vn -0.5016 -0.7152 -0.4867
vn -0.5284 -0.7712 -0.3551
vn -0.4969 -0.7167 -0.4893
vn -0.3648 -0.7152 -0.5962
vn -0.4235 -0.7712 -0.4753
vn -0.3596 -0.7167 -0.5975
vn -0.2051 -0.7152 -0.6682
vn -0.2920 -0.7712 -0.5657
vn -0.1997 -0.7167 -0.6682
vn -0.0325 -0.7152 -0.6982
vn -0.1421 -0.7712 -0.6206
vn -0.0273 -0.7167 -0.6969
vn 0.1422 -0.7152 -0.6843
vn 0.0167 -0.7712 -0.6364
vn 0.1469 -0.7167 -0.6818
vn 0.3079 -0.7152 -0.6275
vn 0.1744 -0.7712 -0.6123
vn 0.3118 -0.7167 -0.6238
vn 0.4543 -0.7152 -0.5312
vn 0.3212 -0.7712 -0.5497
vn 0.4571 -0.7167 -0.5267
vn 0.5721 -0.7152 -0.4015
vn 0.4478 -0.7712 -0.4525
vn 0.5737 -0.7167 -0.3964
vn 0.6540 -0.7152 -0.2466
vn 0.5463 -0.7712 -0.3269
vn 0.6543 -0.7167 -0.2413
vn 0.6918 -0.7153 -0.0991
vn 0.6104 -0.7712 -0.1808
vn 0.7015 -0.7071 -0.0886
vn 0.6984 -0.7069 0.1116
vn 0.6896 -0.7167 0.1038
vn 0.6456 -0.7152 0.2679
vn 0.6220 -0.7712 0.1356
vn 0.6422 -0.7167 0.2720
vn 0.5604 -0.7238 0.4026
vn 0.5687 -0.7712 0.2860
vn 0.5721 -0.7071 0.4156
vn 0.4948 -0.7343 0.4647
vn 0.4394 -0.7244 0.5312
vn 0.4507 -0.7071 0.5448
vn 0.3637 -0.7343 0.5732
vn 0.2935 -0.7244 0.6238
vn 0.3011 -0.7071 0.6398
vn 0.2098 -0.7343 0.6456
vn 0.1292 -0.7244 0.6772
vn 0.1325 -0.7071 0.6946
vn 0.0426 -0.7343 0.6775
vn -0.0433 -0.7244 0.6881
vn -0.0444 -0.7071 0.7057
vn -0.1272 -0.7343 0.6668
vn -0.2130 -0.7244 0.6557
vn -0.2185 -0.7071 0.6725
vn -0.2890 -0.7343 0.6142
vn -0.3694 -0.7244 0.5821
vn -0.3789 -0.7071 0.5970
vn -0.4327 -0.7343 0.5230
vn -0.5026 -0.7244 0.4719
vn -0.5155 -0.7071 0.4840
vn -0.5492 -0.7343 0.3990
vn -0.6041 -0.7244 0.3321
vn -0.6196 -0.7071 0.3407
vn -0.6312 -0.7343 0.2499
vn -0.6678 -0.7244 0.1714
vn -0.6849 -0.7071 0.1759
vn -0.6735 -0.7343 0.0851
vn 0.6849 0.7071 0.1758
vn 0.6196 0.7071 0.3406
vn 0.5155 0.7071 0.4840
vn 0.3789 0.7071 0.5970
vn 0.2185 0.7071 0.6725
vn 0.0444 0.7071 0.7057
vn -0.1325 0.7071 0.6946
vn -0.3011 0.7071 0.6398
vn -0.4507 0.7071 0.5448
vn -0.5721 0.7071 0.4156
vn -0.6574 0.7071 0.2603
vn -0.6575 0.7071 0.2603
vn -0.7015 0.7071 0.0886
vn -0.7015 0.7071 -0.0886
vn -0.6575 0.7071 -0.2603
vn -0.5721 0.7071 -0.4156
vn -0.4507 0.7071 -0.5448
vn -0.3011 0.7071 -0.6398
vn -0.1325 0.7071 -0.6946
vn 0.0444 0.7071 -0.7057
vn 0.2185 0.7071 -0.6725
vn 0.3789 0.7071 -0.5970
vn 0.5155 0.7071 -0.4840
vn 0.6196 0.7071 -0.3407
vn 0.6849 0.7071 -0.1759
vn -0.3958 0.8479 0.3528
vn -0.5356 0.7141 0.4508
vn -0.5906 0.6262 0.5090
vn -0.6645 0.5033 0.5524
vn -0.6822 0.4550 0.5724
vn -0.7409 0.2543 0.6216
vn -0.7391 0.2628 0.6202
vn -0.7660 0.0000 0.6428
vn -0.7409 -0.2543 0.6217
vn -0.7391 -0.2627 0.6202
vn -0.6665 -0.4930 0.5592
vn -0.6608 -0.5058 0.5545
vn -0.5466 -0.7006 0.4586
vn -0.5375 -0.7125 0.4510
vn -0.3786 -0.8693 0.3177
vn -0.3733 -0.8709 0.3196
vn -0.1789 -0.9731 0.1450
vn -0.1965 -0.9652 0.1725
vn 0.0070 -0.9999 -0.0116
vn -0.0030 -1.0000 0.0031
vn 0.2013 -0.9648 -0.1695
vn 0.1943 -0.9673 -0.1631
vn 0.3883 -0.8620 -0.3259
vn 0.3786 -0.8693 -0.3177
vn 0.5467 -0.7005 -0.4587
vn 0.5374 -0.7126 -0.4510
vn 0.6665 -0.4930 -0.5592
vn 0.6608 -0.5058 -0.5545
vn 0.7409 -0.2543 -0.6216
vn 0.7392 -0.2625 -0.6203
vn 0.7661 0.0000 -0.6428
vn 0.7660 0.0002 -0.6428
vn 0.7409 0.2543 -0.6216
vn 0.7390 0.2631 -0.6202
vn 0.6665 0.4930 -0.5592
vn 0.6607 0.5060 -0.5544
vn 0.5467 0.7005 -0.4587
vn 0.5375 0.7125 -0.4510
vn 0.3883 0.8620 -0.3258
vn 0.3785 0.8694 -0.3177
vn 0.2017 0.9647 -0.1692
vn 0.1953 0.9669 -0.1639
vn 0.0119 0.9999 -0.0100
vn -0.0009 1.0000 -0.0034
vn -0.1736 0.9732 0.1509
vn -0.2001 0.9659 0.1645
vn -0.3791 0.8689 0.3181
vn 0.0000 1.0000 -0.0000
vn -0.0000 1.0000 -0.0000
vn 0.0000 1.0000 0.0000
vn -0.0000 1.0000 0.0000
vn -0.0000 -1.0000 0.0000
vn -0.0000 -1.0000 -0.0000
vn 0.0000 -1.0000 -0.0000
vn 0.0000 -1.0000 0.0000
vn 0.4120 -0.0000 0.9112
vn 0.1060 -0.0000 0.9944
vn 0.1055 0.0002 0.9944
vn 0.4106 0.0000 0.9118
vn 0.6450 -0.0002 0.7642
vn 0.6453 -0.0001 0.7639
vn 0.6452 0.0000 0.7640
vn 0.6453 0.0001 0.7640
vn 0.4120 0.0000 0.9112
vn -0.9987 -0.0032 0.0512
vn -0.9914 -0.0000 0.1305
vn -0.8953 0.0051 0.4455
vn -0.9256 -0.0074 0.3783
vn -0.7096 0.0050 0.7046
vn -0.7088 0.0035 0.7054
vn -0.4455 -0.0050 0.8953
vn -0.3805 0.0028 0.9248
vn -0.1271 -0.0050 0.9919
vn -0.0980 0.0000 0.9952
vn -0.9952 -0.0000 0.0980
vn -0.9980 -0.0025 0.0634
vn -0.9469 -0.0008 0.3214
vn -0.8665 -0.0126 0.4989
vn -0.8492 -0.0000 0.5281
vn -0.7071 -0.0011 0.7071
vn -0.4989 -0.0126 0.8665
vn -0.5281 0.0000 0.8492
vn -0.3214 -0.0008 0.9469
vn -0.1270 -0.0050 0.9919
vn -0.0980 -0.0000 0.9952
vn 0.0000 0.7071 -0.7071
vn -0.0000 0.7071 -0.7071
vn 0.0000 -0.7071 -0.7071
vn -0.0000 -0.7071 -0.7071
vn 0.0011 0.0000 1.0000
vn -0.0000 -0.1859 0.9826
vn 0.0051 -0.1525 0.9883
vn -0.0000 -0.4339 0.9010
vn -0.0000 -0.6802 0.7331
vn 0.0000 -0.6802 0.7331
vn 0.0000 -0.8660 0.5000
vn -0.0000 -0.8660 0.5000
vn -0.0000 -0.9749 0.2225
vn -0.0000 -0.9972 -0.0747
vn 0.0000 -0.9972 -0.0747
vn 0.0000 -0.9309 -0.3653
vn 0.0000 -0.7818 -0.6235
vn 0.0000 -0.5633 -0.8262
vn 0.0000 -0.2948 -0.9556
vn 0.0000 0.2948 -0.9556
vn 0.0000 0.5633 -0.8262
vn 0.0000 0.7818 -0.6235
vn 0.0000 0.9309 -0.3653
vn -0.0000 0.9972 -0.0747
vn -0.0000 0.9749 0.2225
vn -0.0000 0.8660 0.5000
vn -0.0000 0.6802 0.7331
vn -0.0000 0.4339 0.9010
vn -0.0000 0.1859 0.9826
vn 0.0051 0.1525 0.9883
vn -0.0140 -0.9034 0.4286
vn -0.0353 -0.9895 0.1399
vn -0.0272 -0.9646 0.2625
vn -0.0310 -0.9885 -0.1479
vn -0.0240 -0.9997 0.0000
vn 0.0001 -0.9917 0.1284
vn -0.0156 -0.9060 -0.4230
vn -0.0638 -0.9566 -0.2842
vn 0.0001 -0.9917 -0.1284
vn 0.0000 -0.9096 -0.4154
vn 0.0000 -0.7557 -0.6549
vn -0.0000 -0.5406 -0.8413
vn 0.0000 -0.2817 -0.9595
vn -0.0000 -0.0000 -1.0000
vn -0.0000 0.2817 -0.9595
vn -0.0000 0.5406 -0.8413
vn -0.0000 0.7557 -0.6549
vn -0.0140 0.9034 -0.4286
vn 0.0000 0.8983 -0.4393
vn -0.0272 0.9646 -0.2625
vn -0.0313 0.9907 -0.1325
vn 0.0001 0.9917 -0.1284
vn -0.0156 0.9060 0.4230
vn -0.0638 0.9566 0.2842
vn -0.0146 0.9910 0.1329
vn -0.0214 0.9945 0.1028
vn -0.0749 0.9969 0.0258
vn 0.0000 -0.8983 0.4394
vn 0.0000 -0.7558 0.6549
vn 0.0000 -0.5406 0.8413
vn -0.0000 -0.2817 0.9595
vn -0.0000 0.0000 1.0000
vn -0.0000 0.2817 0.9595
vn 0.0000 0.5406 0.8413
vn -0.0000 0.5406 0.8413
vn -0.0000 0.7558 0.6549
vn 0.0000 0.9096 0.4154
vn -1.0000 0.0000 -0.0000
vn -1.0000 0.0000 0.0000
vn -0.9988 -0.0000 0.0491
vn 0.9780 -0.0003 0.2088
vn 0.9782 -0.0000 0.2078
vn 0.9137 0.0001 0.4064
vn 0.9127 -0.0004 0.4087
vn 0.6696 0.0004 0.7427
vn 0.6659 -0.0007 0.7461
vn 0.3099 0.0007 0.9508
vn 0.3047 -0.0004 0.9524
vn -0.0647 0.0004 0.9979
vn -0.0670 -0.0008 0.9978
vn -0.1492 0.0009 0.9888
vn -0.1554 -0.0015 0.9878
vn 0.0159 0.0015 0.9999
vn 0.0100 -0.0013 0.9999
vn 0.1816 0.0012 0.9834
vn 0.1769 -0.0010 0.9842
vn 0.3422 0.0009 0.9396
vn 0.3389 -0.0007 0.9408
vn 0.4933 0.0007 0.8698
vn 0.4913 -0.0004 0.8710
vn 0.6308 0.0004 0.7760
vn 0.6299 -0.0001 0.7767
vn 0.6310 0.0001 0.7758
vn 0.6301 -0.0004 0.7765
vn 0.4936 0.0004 0.8697
vn 0.4915 -0.0006 0.8709
vn 0.3424 0.0006 0.9395
vn 0.3391 -0.0009 0.9407
vn 0.1818 0.0009 0.9833
vn 0.1772 -0.0011 0.9842
vn 0.0162 0.0011 0.9999
vn 0.0103 -0.0014 0.9999
vn -0.1500 0.0013 0.9887
vn -0.1560 -0.0007 0.9878
vn -0.0652 0.0008 0.9979
vn -0.0674 -0.0004 0.9977
vn 0.9781 0.0003 0.2080
vn 0.9779 -0.0000 0.2090
vn 0.9126 -0.0001 0.4089
vn 0.9136 0.0004 0.4066
vn 0.6657 -0.0004 0.7462
vn 0.6695 0.0007 0.7428
vn 0.3049 -0.0007 0.9524
vn 0.3101 0.0004 0.9507
vn 0.0001 -1.0000 -0.0000
vn -0.8008 0.0103 -0.5988
vn -0.8186 0.0058 -0.5744
vn -0.8826 -0.0069 -0.4700
vn -0.8396 -0.0000 -0.5433
vn -0.8185 -0.0058 -0.5744
vn -0.8826 0.0069 -0.4700
vn -0.7985 -0.0110 -0.6019
vn -0.7740 -0.0188 -0.6329
vn -0.7406 -0.0189 -0.6717
vn -0.8027 0.0099 -0.5963
vn -0.6885 -0.0086 -0.7252
vn -0.6923 0.0000 -0.7216
vn -0.5411 -0.0138 -0.8408
vn -0.4994 -0.0063 -0.8664
vn -0.4310 0.0032 -0.9024
vn -0.4682 -0.0027 -0.8836
vn -0.4482 -0.0012 -0.8940
vn -0.5645 0.0059 -0.8254
vn -0.6317 -0.0161 -0.7751
vn -0.5912 -0.0273 -0.8060
vn -0.4278 0.0000 -0.9039
vn -0.4481 0.0012 -0.8940
vn -0.4283 0.0001 -0.9036
vn -0.4681 0.0027 -0.8836
vn -0.4994 0.0063 -0.8664
vn -0.5411 0.0138 -0.8408
vn -0.5850 0.0100 -0.8110
vn -0.5667 0.0002 -0.8239
vn -0.6399 0.0003 -0.7685
vn -0.6928 0.0009 -0.7212
vn -0.6893 0.0068 -0.7244
vn -0.8027 -0.0099 -0.5963
vn -0.7464 0.0167 -0.6653
vn -0.7839 0.0154 -0.6208
vn 0.6833 -0.0121 -0.7301
vn 0.7087 -0.0064 -0.7055
vn 0.7500 -0.0015 -0.6614
vn 0.7353 0.0000 -0.6777
vn 0.7085 0.0064 -0.7056
vn 0.7500 0.0015 -0.6614
vn 0.6833 0.0121 -0.7301
vn 0.3086 0.0021 -0.9512
vn 0.2878 0.0009 -0.9577
vn 0.2067 -0.0072 -0.9784
vn 0.3421 0.0054 -0.9396
vn 0.6535 0.0203 -0.7567
vn 0.6172 0.0154 -0.7867
vn 0.6332 0.0008 -0.7740
vn 0.5514 -0.0002 -0.8342
vn 0.5030 0.0032 -0.8643
vn 0.4935 0.0081 -0.8697
vn 0.3484 -0.0070 -0.9373
vn 0.4397 0.0169 -0.8980
vn 0.3875 0.0124 -0.9218
vn 0.2685 0.0000 -0.9633
vn 0.2880 -0.0009 -0.9576
vn 0.2067 0.0072 -0.9784
vn 0.3086 -0.0021 -0.9512
vn 0.3421 -0.0054 -0.9396
vn 0.3875 -0.0124 -0.9218
vn 0.4397 -0.0169 -0.8980
vn 0.3484 0.0070 -0.9373
vn 0.4935 -0.0081 -0.8697
vn 0.5030 -0.0032 -0.8643
vn 0.5514 0.0002 -0.8342
vn 0.6332 -0.0008 -0.7740
vn 0.6172 -0.0154 -0.7867
vn 0.6535 -0.0203 -0.7567
vn -0.2774 0.0000 -0.9608
vn -0.1196 0.0000 -0.9928
vn 0.0413 0.0000 -0.9991
vn 0.8461 -0.0000 -0.5330
vn 0.9207 -0.0000 -0.3904
vn 0.9207 -0.0000 -0.3903
vn 0.9714 -0.0000 -0.2375
vn 0.9714 -0.0000 0.2375
vn 0.9714 0.0000 0.2375
vn 0.9207 -0.0000 0.3903
vn 0.9207 0.0000 0.3904
vn 0.8461 0.0000 0.5330
vn 0.7496 0.0000 0.6619
vn 0.7496 -0.0000 0.6619
vn 0.6336 -0.0000 0.7737
vn 0.6336 0.0000 0.7737
vn 0.5012 -0.0000 0.8653
vn 0.5012 0.0000 0.8653
vn 0.3558 0.0000 0.9346
vn 0.2012 0.0000 0.9796
vn 0.2012 -0.0000 0.9796
vn 0.0413 -0.0000 0.9991
vn -0.1196 -0.0000 0.9928
vn -0.2774 -0.0000 0.9608
vn -0.2774 0.0000 0.9608
vn -0.4280 0.0000 0.9038
vn -0.5675 0.0000 0.8233
vn -0.5675 -0.0000 0.8233
vn -0.6923 -0.0000 0.7216
vn -0.7992 -0.0000 0.6011
vn -0.7992 0.0000 0.6011
vn -0.8853 0.0000 0.4650
vn -0.9485 0.0000 0.3169
vn -0.9870 0.0000 0.1605
vn -0.9870 -0.0000 0.1605
vn -0.9870 -0.0000 -0.1605
vn -0.9485 -0.0000 -0.3169
vn -0.9485 0.0000 -0.3169
vn -0.0490 0.0000 0.9988
vn 0.0561 0.0000 0.9984
vn -0.5461 0.0005 -0.8377
vn -0.5429 0.0157 -0.8397
vn -0.5898 -0.0007 -0.8076
vn -0.5413 0.0204 -0.8406
vn -0.5501 0.0140 -0.8350
vn -0.6080 0.0000 -0.7939
vn -0.5734 -0.0049 -0.8193
vn -0.5511 -0.0160 -0.8343
vn -0.5438 -0.0223 -0.8389
vn -0.5453 -0.0159 -0.8381
vn -0.5735 0.0041 -0.8192
vn -0.6083 -0.0000 -0.7937
vn -0.6430 -0.0008 -0.7658
vn -0.7255 -0.0276 -0.6877
vn -0.7214 -0.0230 -0.6921
vn -0.6840 -0.0002 -0.7295
vn -0.7058 -0.0108 -0.7083
vn -0.6775 -0.0012 -0.7355
vn -0.6426 0.0009 -0.7662
vn -0.6777 0.0012 -0.7353
vn -0.7058 0.0104 -0.7083
vn -0.7218 0.0223 -0.6917
vn -0.7261 0.0270 -0.6870
vn -0.7241 0.0187 -0.6894
vn -0.7223 0.0001 -0.6916
vn -0.7236 -0.0188 -0.6899
vn 0.6005 0.0005 -0.7997
vn 0.6034 0.0157 -0.7973
vn 0.5572 -0.0007 -0.8304
vn 0.6048 0.0204 -0.7961
vn 0.5965 0.0140 -0.8025
vn 0.5381 0.0000 -0.8429
vn 0.5737 -0.0049 -0.8190
vn 0.5954 -0.0160 -0.8032
vn 0.6023 -0.0223 -0.7980
vn 0.6011 -0.0159 -0.7990
vn 0.5737 0.0041 -0.8191
vn 0.5378 -0.0000 -0.8430
vn 0.4997 -0.0008 -0.8662
vn 0.3981 -0.0276 -0.9169
vn 0.4036 -0.0230 -0.9146
vn 0.4516 -0.0002 -0.8922
vn 0.4242 -0.0109 -0.9055
vn 0.4594 -0.0012 -0.8882
vn 0.5002 0.0009 -0.8659
vn 0.4592 0.0012 -0.8884
vn 0.4241 0.0105 -0.9055
vn 0.4031 0.0223 -0.9149
vn 0.3973 0.0270 -0.9173
vn 0.4002 0.0187 -0.9163
vn 0.4028 0.0001 -0.9153
vn 0.4009 -0.0188 -0.9159
vn -0.5133 0.0000 0.8582
vn -0.5949 0.0000 0.8038
vn -0.8572 0.0000 -0.5150
vn -0.8572 -0.2235 -0.4640
vn -0.8572 -0.5021 -0.1146
vn -0.8572 -0.5021 0.1146
vn -0.8572 -0.4027 -0.3211
vn -0.8572 -0.2235 0.4640
vn -0.8572 -0.0000 0.5150
vn -0.8572 -0.4027 0.3211
vn -0.8572 0.4027 0.3211
vn -0.8572 0.5021 0.1146
vn -0.8572 0.2235 0.4640
vn -0.8572 0.4027 -0.3211
vn -0.8572 0.2235 -0.4640
vn -0.8572 0.5021 -0.1146
vn 0.0000 0.0000 1.0000
vn -0.0000 -0.0000 1.0000
vn -0.0000 -0.7818 0.6235
vn -0.0000 -0.9749 -0.2225
vn -0.0000 -0.7818 -0.6235
vn 0.0000 -0.4339 -0.9010
vn -0.0000 0.0000 -1.0000
vn -0.0000 0.4339 -0.9010
vn 0.0000 0.4339 -0.9010
vn 0.0000 0.9749 -0.2225
vn 0.0000 0.9749 0.2225
vn 0.0000 0.7818 0.6235
vn 0.0000 0.4339 0.9010
vn 0.0000 -0.0000 1.0000
vn 0.0000 0.7072 0.7071
vn -0.0000 -0.7071 0.7071
vn 0.9991 -0.0000 -0.0416
vn 0.9984 0.0000 0.0561
vn 1.0000 -0.0000 -0.0000
vn -0.1947 0.0000 0.9809
vn -0.3820 0.0000 0.9241
vn -0.9807 -0.0000 0.1953
vn -0.9237 -0.0000 0.3831
vn -0.8311 -0.0000 0.5561
vn -0.7065 -0.0000 0.7077
vn 0.9883 -0.0000 -0.1526
vn 0.9880 0.0003 -0.1543
vn 0.9824 -0.0000 -0.1870
vn 0.9786 0.0000 -0.2058
vn 0.9824 0.0000 -0.1870
vn 0.9784 -0.0009 -0.2069
vn 0.9556 -0.0004 -0.2948
vn 0.9555 -0.0000 -0.2949
vn 0.9003 -0.0000 -0.4352
vn 0.7818 0.0000 -0.6235
vn 0.6235 0.0000 -0.7818
vn 0.6235 -0.0000 -0.7818
vn 0.4339 -0.0000 -0.9010
vn 0.2225 -0.0000 -0.9749
vn 0.2225 0.0000 -0.9749
vn 0.9749 0.0000 0.2225
vn 0.9749 -0.0000 0.2225
vn 0.9010 0.0000 0.4339
vn 0.7818 0.0000 0.6235
vn 0.6235 -0.0000 0.7818
vn 0.4339 -0.0000 0.9010
vn 0.2225 0.0000 0.9749
# 858 vertex normals

vt 0.0000 0.0000 0.0000
# 1 texture coords

o node
g node
usemtl DefaultMaterial
s 1
f 1/1/1 2/1/2 3/1/3 
f 3/1/3 2/1/2 4/1/4 
f 3/1/3 4/1/4 5/1/4 
f 5/1/4 4/1/4 6/1/5 
f 5/1/4 6/1/5 7/1/5 
f 7/1/5 6/1/5 8/1/6 
f 7/1/5 8/1/6 9/1/6 
f 9/1/6 8/1/6 10/1/7 
f 9/1/6 10/1/7 11/1/7 
f 11/1/7 10/1/7 12/1/8 
f 11/1/7 12/1/8 13/1/8 
f 13/1/8 12/1/8 14/1/9 
f 13/1/8 14/1/9 15/1/9 
f 15/1/9 14/1/9 16/1/10 
f 15/1/9 16/1/10 17/1/10 
f 17/1/10 16/1/10 18/1/11 
f 17/1/10 18/1/11 19/1/11 
f 19/1/11 18/1/11 20/1/12 
f 19/1/11 20/1/12 21/1/12 
f 21/1/12 20/1/12 22/1/13 
f 21/1/12 22/1/13 23/1/13 
f 23/1/13 22/1/13 24/1/14 
f 23/1/13 24/1/14 25/1/14 
f 25/1/14 24/1/14 26/1/15 
f 25/1/14 26/1/15 27/1/15 
f 27/1/15 26/1/15 28/1/16 
f 27/1/15 28/1/16 29/1/16 
f 29/1/16 28/1/16 30/1/17 
f 29/1/16 30/1/17 31/1/17 
f 31/1/17 30/1/17 32/1/18 
f 31/1/17 32/1/18 33/1/18 
f 33/1/18 32/1/18 34/1/19 
f 33/1/18 34/1/19 35/1/20 
f 35/1/20 34/1/19 36/1/21 
f 35/1/20 36/1/21 37/1/21 
f 37/1/21 36/1/21 38/1/22 
f 37/1/21 38/1/22 39/1/22 
f 39/1/22 38/1/22 40/1/23 
f 39/1/22 40/1/23 41/1/23 
f 41/1/23 40/1/23 42/1/24 
f 41/1/23 42/1/24 43/1/24 
f 43/1/24 42/1/24 44/1/25 
f 43/1/24 44/1/25 45/1/25 
f 45/1/25 44/1/25 46/1/26 
f 45/1/25 46/1/26 47/1/26 
f 47/1/26 46/1/26 48/1/27 
f 47/1/26 48/1/27 49/1/27 
f 49/1/27 48/1/27 50/1/28 
f 49/1/27 50/1/28 51/1/29 
f 51/1/29 50/1/28 1/1/1 
f 51/1/29 1/1/1 3/1/3 
f 52/1/30 53/1/31 54/1/32 
f 54/1/32 55/1/33 52/1/30 
f 52/1/30 55/1/33 56/1/34 
f 52/1/30 56/1/34 57/1/35 
f 56/1/34 58/1/36 57/1/35 
f 57/1/35 58/1/36 59/1/37 
f 57/1/35 59/1/37 60/1/38 
f 59/1/37 61/1/39 60/1/38 
f 60/1/38 61/1/39 62/1/40 
f 60/1/38 62/1/40 63/1/41 
f 62/1/40 64/1/42 63/1/41 
f 63/1/41 64/1/42 65/1/43 
f 63/1/41 65/1/43 66/1/44 
f 65/1/43 67/1/45 66/1/44 
f 66/1/44 67/1/45 68/1/46 
f 66/1/44 68/1/46 69/1/47 
f 68/1/46 70/1/48 69/1/47 
f 69/1/47 70/1/48 71/1/49 
f 69/1/47 71/1/49 72/1/50 
f 71/1/49 73/1/51 72/1/50 
f 72/1/50 73/1/51 74/1/52 
f 72/1/50 74/1/52 75/1/53 
f 74/1/52 76/1/54 75/1/53 
f 75/1/53 76/1/54 77/1/55 
f 75/1/53 77/1/55 78/1/56 
f 77/1/55 79/1/57 78/1/56 
f 78/1/56 79/1/57 80/1/58 
f 78/1/56 80/1/58 81/1/59 
f 81/1/59 80/1/58 82/1/60 
f 82/1/60 83/1/61 81/1/59 
f 81/1/59 83/1/61 84/1/62 
f 81/1/59 84/1/62 85/1/63 
f 84/1/62 86/1/64 85/1/63 
f 85/1/63 86/1/64 87/1/65 
f 85/1/63 87/1/65 88/1/66 
f 88/1/66 87/1/65 89/1/67 
f 88/1/66 89/1/67 90/1/68 
f 90/1/68 89/1/67 91/1/68 
f 90/1/68 91/1/68 92/1/69 
f 91/1/68 93/1/70 92/1/69 
f 92/1/69 93/1/70 94/1/71 
f 92/1/69 94/1/71 95/1/72 
f 94/1/71 96/1/73 95/1/72 
f 95/1/72 96/1/73 97/1/74 
f 95/1/72 97/1/74 98/1/75 
f 97/1/74 99/1/76 98/1/75 
f 98/1/75 99/1/76 100/1/77 
f 98/1/75 100/1/77 101/1/78 
f 100/1/77 102/1/6 101/1/78 
f 101/1/78 102/1/6 103/1/79 
f 101/1/78 103/1/79 104/1/80 
f 103/1/79 105/1/7 104/1/80 
f 104/1/80 105/1/7 106/1/81 
f 104/1/80 106/1/81 107/1/82 
f 106/1/81 108/1/8 107/1/82 
f 107/1/82 108/1/8 109/1/83 
f 107/1/82 109/1/83 110/1/84 
f 109/1/83 111/1/9 110/1/84 
f 110/1/84 111/1/9 112/1/85 
f 110/1/84 112/1/85 113/1/86 
f 112/1/85 114/1/10 113/1/86 
f 113/1/86 114/1/10 115/1/87 
f 113/1/86 115/1/87 116/1/88 
f 115/1/87 117/1/11 116/1/88 
f 116/1/88 117/1/11 118/1/89 
f 116/1/88 118/1/89 119/1/90 
f 119/1/90 118/1/89 120/1/91 
f 119/1/90 120/1/91 121/1/92 
f 120/1/91 122/1/93 121/1/92 
f 121/1/92 122/1/93 123/1/94 
f 121/1/92 123/1/94 124/1/95 
f 123/1/94 125/1/96 124/1/95 
f 124/1/95 125/1/96 126/1/97 
f 124/1/95 126/1/97 53/1/31 
f 53/1/31 126/1/97 127/1/98 
f 53/1/31 127/1/98 54/1/32 
f 128/1/99 129/1/100 130/1/101 
s 2
f 131/1/102 132/1/102 133/1/102 
s 16
f 132/1/103 131/1/104 134/1/105 
f 135/1/106 136/1/103 137/1/103 
f 138/1/103 139/1/103 137/1/103 
f 137/1/103 139/1/103 132/1/103 
f 137/1/103 132/1/103 135/1/106 
f 135/1/106 132/1/103 134/1/105 
s 1
f 140/1/107 141/1/108 142/1/109 
f 142/1/109 141/1/108 143/1/110 
f 142/1/109 143/1/110 144/1/111 
f 144/1/111 143/1/110 145/1/112 
f 144/1/111 145/1/112 146/1/113 
f 146/1/113 145/1/112 147/1/114 
f 146/1/113 147/1/114 148/1/115 
f 148/1/115 147/1/114 149/1/116 
f 148/1/115 149/1/116 150/1/117 
f 150/1/117 149/1/116 151/1/118 
f 150/1/117 151/1/118 152/1/119 
f 152/1/119 151/1/118 153/1/120 
f 152/1/119 153/1/120 154/1/121 
f 154/1/121 153/1/120 155/1/122 
f 154/1/121 155/1/122 156/1/123 
f 156/1/123 155/1/122 157/1/124 
f 156/1/123 157/1/124 158/1/125 
f 158/1/125 157/1/124 159/1/126 
f 158/1/125 159/1/126 160/1/127 
f 160/1/127 159/1/126 161/1/128 
f 160/1/127 161/1/128 162/1/129 
f 162/1/129 161/1/128 163/1/129 
f 162/1/129 163/1/129 164/1/130 
f 164/1/130 163/1/129 165/1/131 
f 164/1/130 165/1/131 166/1/132 
f 166/1/132 165/1/131 167/1/133 
f 166/1/132 167/1/133 168/1/134 
f 168/1/134 167/1/133 169/1/135 
f 168/1/134 169/1/135 170/1/136 
f 170/1/136 169/1/135 171/1/137 
f 170/1/136 171/1/137 172/1/138 
f 172/1/138 171/1/137 173/1/139 
f 172/1/138 173/1/139 174/1/140 
f 174/1/140 173/1/139 175/1/141 
f 174/1/140 175/1/141 176/1/142 
f 176/1/142 175/1/141 177/1/143 
f 176/1/142 177/1/143 178/1/144 
f 178/1/144 177/1/143 179/1/145 
f 178/1/144 179/1/145 180/1/146 
f 180/1/146 179/1/145 181/1/147 
f 180/1/146 181/1/147 182/1/148 
f 182/1/148 181/1/147 183/1/149 
f 182/1/148 183/1/149 184/1/150 
f 184/1/150 183/1/149 185/1/151 
f 184/1/150 185/1/151 186/1/152 
f 186/1/152 185/1/151 187/1/153 
f 186/1/152 187/1/153 140/1/107 
f 140/1/107 187/1/153 141/1/108 
f 129/1/100 128/1/99 188/1/154 
f 188/1/154 128/1/99 189/1/155 
f 190/1/156 191/1/157 192/1/158 
f 190/1/156 192/1/158 193/1/159 
f 193/1/159 192/1/158 194/1/160 
f 194/1/160 192/1/158 195/1/161 
f 194/1/160 195/1/161 196/1/161 
f 196/1/161 195/1/161 197/1/162 
f 196/1/161 197/1/162 198/1/163 
f 198/1/163 197/1/162 188/1/154 
f 198/1/163 188/1/154 189/1/155 
f 190/1/156 193/1/159 199/1/164 
f 191/1/157 190/1/156 200/1/165 
f 200/1/165 190/1/156 199/1/164 
f 200/1/165 199/1/164 201/1/166 
f 201/1/166 199/1/164 202/1/166 
f 201/1/166 202/1/166 203/1/167 
f 203/1/167 202/1/166 204/1/167 
f 203/1/167 204/1/167 205/1/168 
f 205/1/168 204/1/167 206/1/168 
f 205/1/168 206/1/168 207/1/169 
f 207/1/169 206/1/168 208/1/169 
f 207/1/169 208/1/169 209/1/170 
f 209/1/170 208/1/169 210/1/170 
f 209/1/170 210/1/170 211/1/171 
f 211/1/171 210/1/170 212/1/172 
f 213/1/173 214/1/174 215/1/175 
f 213/1/173 215/1/175 216/1/175 
f 216/1/175 215/1/175 211/1/171 
f 216/1/175 211/1/171 212/1/172 
f 214/1/174 213/1/173 217/1/176 
f 217/1/176 213/1/173 218/1/177 
f 219/1/178 220/1/179 221/1/180 
f 219/1/178 221/1/180 222/1/181 
f 222/1/181 221/1/180 223/1/182 
f 222/1/181 223/1/182 224/1/183 
f 223/1/182 225/1/184 224/1/183 
f 224/1/183 225/1/184 226/1/185 
f 224/1/183 226/1/185 227/1/186 
f 226/1/185 228/1/187 227/1/186 
f 227/1/186 228/1/187 217/1/176 
f 227/1/186 217/1/176 218/1/177 
f 229/1/188 230/1/189 219/1/178 
f 219/1/178 230/1/189 231/1/189 
f 219/1/178 231/1/189 220/1/179 
f 232/1/189 233/1/188 234/1/189 
f 234/1/189 233/1/188 235/1/188 
f 234/1/189 235/1/188 229/1/188 
f 236/1/190 237/1/191 238/1/192 
f 237/1/191 236/1/190 239/1/193 
f 239/1/193 236/1/190 240/1/194 
f 241/1/195 242/1/196 243/1/197 
f 244/1/198 245/1/199 241/1/195 
f 241/1/195 243/1/197 244/1/198 
f 244/1/198 243/1/197 246/1/200 
f 244/1/198 246/1/200 247/1/200 
f 247/1/200 246/1/200 248/1/201 
f 247/1/200 248/1/201 249/1/201 
f 249/1/201 248/1/201 239/1/193 
f 249/1/201 239/1/193 240/1/194 
f 241/1/195 245/1/199 250/1/202 
f 251/1/203 252/1/204 253/1/205 
f 253/1/205 252/1/204 254/1/205 
f 253/1/205 254/1/205 255/1/206 
f 255/1/206 254/1/205 256/1/206 
f 255/1/206 256/1/206 257/1/207 
f 257/1/207 256/1/206 258/1/207 
f 257/1/207 258/1/207 259/1/208 
f 259/1/208 258/1/207 260/1/208 
f 259/1/208 260/1/208 261/1/209 
f 261/1/209 260/1/208 262/1/209 
f 261/1/209 262/1/209 250/1/202 
f 250/1/202 262/1/209 263/1/210 
f 250/1/202 263/1/210 241/1/195 
f 241/1/195 263/1/210 242/1/196 
f 252/1/204 251/1/203 264/1/211 
f 252/1/204 264/1/211 265/1/211 
f 265/1/211 264/1/211 266/1/212 
f 265/1/211 266/1/212 267/1/213 
f 267/1/213 266/1/212 268/1/214 
f 268/1/214 266/1/212 269/1/215 
f 268/1/214 269/1/215 270/1/216 
f 268/1/214 270/1/216 271/1/217 
f 271/1/217 270/1/216 272/1/218 
f 271/1/217 272/1/218 273/1/219 
f 272/1/218 274/1/220 273/1/219 
f 273/1/219 274/1/220 275/1/221 
f 273/1/219 275/1/221 276/1/222 
f 275/1/221 277/1/223 276/1/222 
f 276/1/222 277/1/223 278/1/223 
f 276/1/222 278/1/223 279/1/223 
f 279/1/223 280/1/223 281/1/223 
f 281/1/223 280/1/223 282/1/223 
f 281/1/223 282/1/223 283/1/223 
s 2
f 284/1/224 285/1/225 286/1/226 
f 286/1/226 287/1/227 284/1/224 
f 284/1/224 287/1/227 288/1/228 
f 284/1/224 288/1/228 289/1/229 
f 288/1/228 290/1/230 289/1/229 
f 289/1/229 290/1/230 291/1/231 
f 289/1/229 291/1/231 292/1/232 
f 291/1/231 293/1/233 292/1/232 
f 292/1/232 293/1/233 294/1/234 
f 292/1/232 294/1/234 295/1/235 
f 294/1/234 296/1/236 295/1/235 
f 295/1/235 296/1/236 297/1/237 
f 295/1/235 297/1/237 298/1/238 
f 297/1/237 299/1/239 298/1/238 
f 298/1/238 299/1/239 300/1/240 
f 298/1/238 300/1/240 301/1/241 
f 300/1/240 302/1/242 301/1/241 
f 301/1/241 302/1/242 303/1/243 
f 301/1/241 303/1/243 304/1/244 
f 303/1/243 305/1/245 304/1/244 
f 304/1/244 305/1/245 306/1/246 
f 304/1/244 306/1/246 307/1/247 
f 306/1/246 308/1/248 307/1/247 
f 307/1/247 308/1/248 309/1/249 
f 307/1/247 309/1/249 310/1/250 
f 310/1/250 309/1/249 311/1/250 
f 310/1/250 311/1/250 312/1/251 
f 311/1/250 313/1/252 312/1/251 
f 312/1/251 313/1/252 314/1/253 
f 312/1/251 314/1/253 315/1/254 
f 314/1/253 316/1/255 315/1/254 
f 315/1/254 316/1/255 317/1/256 
f 315/1/254 317/1/256 318/1/257 
f 317/1/256 319/1/258 318/1/257 
f 318/1/257 319/1/258 320/1/259 
f 318/1/257 320/1/259 321/1/260 
f 320/1/259 322/1/261 321/1/260 
f 321/1/260 322/1/261 323/1/262 
f 321/1/260 323/1/262 324/1/263 
f 323/1/262 325/1/264 324/1/263 
f 324/1/263 325/1/264 326/1/265 
f 324/1/263 326/1/265 327/1/266 
f 326/1/265 328/1/267 327/1/266 
f 327/1/266 328/1/267 329/1/268 
f 327/1/266 329/1/268 330/1/269 
f 329/1/268 331/1/270 330/1/269 
f 330/1/269 331/1/270 332/1/271 
f 330/1/269 332/1/271 333/1/272 
f 332/1/271 334/1/273 333/1/272 
f 333/1/272 334/1/273 335/1/274 
f 333/1/272 335/1/274 336/1/275 
f 335/1/274 337/1/276 336/1/275 
f 336/1/275 337/1/276 338/1/277 
f 336/1/275 338/1/277 339/1/278 
f 339/1/278 338/1/277 340/1/279 
f 339/1/278 340/1/279 285/1/225 
f 285/1/225 340/1/279 341/1/280 
f 285/1/225 341/1/280 286/1/226 
f 342/1/281 343/1/282 344/1/283 
f 344/1/283 345/1/284 342/1/281 
f 342/1/281 345/1/284 346/1/285 
f 342/1/281 346/1/285 347/1/286 
f 346/1/285 348/1/287 347/1/286 
f 347/1/286 348/1/287 349/1/288 
f 347/1/286 349/1/288 350/1/289 
f 349/1/288 351/1/290 350/1/289 
f 350/1/289 351/1/290 352/1/291 
f 350/1/289 352/1/291 353/1/292 
f 352/1/291 354/1/293 353/1/292 
f 353/1/292 354/1/293 355/1/294 
f 353/1/292 355/1/294 356/1/295 
f 355/1/294 357/1/296 356/1/295 
f 356/1/295 357/1/296 358/1/297 
f 356/1/295 358/1/297 359/1/298 
f 358/1/297 360/1/299 359/1/298 
f 359/1/298 360/1/299 361/1/300 
f 359/1/298 361/1/300 362/1/301 
f 361/1/300 363/1/302 362/1/301 
f 362/1/301 363/1/302 364/1/303 
f 362/1/301 364/1/303 365/1/304 
f 364/1/303 366/1/305 365/1/304 
f 365/1/304 366/1/305 367/1/306 
f 365/1/304 367/1/306 368/1/307 
f 368/1/307 367/1/306 369/1/308 
f 368/1/307 369/1/308 370/1/309 
f 369/1/308 371/1/310 370/1/309 
f 370/1/309 371/1/310 372/1/311 
f 370/1/309 372/1/311 373/1/312 
f 372/1/311 374/1/313 373/1/312 
f 373/1/312 374/1/313 375/1/314 
f 373/1/312 375/1/314 376/1/315 
f 375/1/314 377/1/316 376/1/315 
f 376/1/315 377/1/316 378/1/317 
f 376/1/315 378/1/317 379/1/318 
f 378/1/317 380/1/319 379/1/318 
f 379/1/318 380/1/319 381/1/320 
f 379/1/318 381/1/320 382/1/321 
f 381/1/320 383/1/322 382/1/321 
f 382/1/321 383/1/322 384/1/323 
f 382/1/321 384/1/323 385/1/324 
f 384/1/323 386/1/325 385/1/324 
f 385/1/324 386/1/325 387/1/326 
f 385/1/324 387/1/326 388/1/327 
f 387/1/326 389/1/328 388/1/327 
f 388/1/327 389/1/328 390/1/329 
f 388/1/327 390/1/329 391/1/330 
f 390/1/329 392/1/331 391/1/330 
f 391/1/330 392/1/331 393/1/332 
f 391/1/330 393/1/332 394/1/333 
f 393/1/332 395/1/334 394/1/333 
f 394/1/333 395/1/334 396/1/335 
f 394/1/333 396/1/335 397/1/336 
f 397/1/336 396/1/335 398/1/336 
f 397/1/336 398/1/336 343/1/282 
f 343/1/282 398/1/336 399/1/337 
f 343/1/282 399/1/337 344/1/283 
f 400/1/338 401/1/339 89/1/340 
f 89/1/340 87/1/341 400/1/338 
f 400/1/338 87/1/341 86/1/342 
f 400/1/338 86/1/342 402/1/343 
f 402/1/343 86/1/342 84/1/344 
f 402/1/343 84/1/344 403/1/345 
f 84/1/344 83/1/346 403/1/345 
f 403/1/345 83/1/346 82/1/347 
f 403/1/345 82/1/347 404/1/348 
f 82/1/347 80/1/349 404/1/348 
f 404/1/348 80/1/349 79/1/350 
f 404/1/348 79/1/350 405/1/351 
f 79/1/350 77/1/352 405/1/351 
f 405/1/351 77/1/352 76/1/353 
f 405/1/351 76/1/353 406/1/354 
f 76/1/353 74/1/355 406/1/354 
f 406/1/354 74/1/355 73/1/356 
f 406/1/354 73/1/356 407/1/357 
f 73/1/356 71/1/358 407/1/357 
f 407/1/357 71/1/358 70/1/359 
f 407/1/357 70/1/359 408/1/360 
f 70/1/359 68/1/361 408/1/360 
f 408/1/360 68/1/361 67/1/362 
f 408/1/360 67/1/362 409/1/363 
f 67/1/362 65/1/364 409/1/363 
f 409/1/363 65/1/364 64/1/365 
f 409/1/363 64/1/365 410/1/366 
f 64/1/365 62/1/367 410/1/366 
f 410/1/366 62/1/367 61/1/368 
f 410/1/366 61/1/368 411/1/369 
f 61/1/368 59/1/370 411/1/369 
f 411/1/369 59/1/370 58/1/371 
f 411/1/369 58/1/371 412/1/372 
f 58/1/371 56/1/373 412/1/372 
f 412/1/372 56/1/373 55/1/374 
f 412/1/372 55/1/374 413/1/250 
f 413/1/250 55/1/374 54/1/250 
f 413/1/250 54/1/250 414/1/375 
f 414/1/375 54/1/250 127/1/376 
f 414/1/375 127/1/376 415/1/377 
f 127/1/376 126/1/378 415/1/377 
f 415/1/377 126/1/378 125/1/379 
f 415/1/377 125/1/379 416/1/380 
f 416/1/380 125/1/379 123/1/381 
f 123/1/381 122/1/382 416/1/380 
f 416/1/380 122/1/382 120/1/383 
f 416/1/380 120/1/383 417/1/384 
f 120/1/383 118/1/385 417/1/384 
f 417/1/384 118/1/385 117/1/386 
f 417/1/384 117/1/386 418/1/387 
f 117/1/386 115/1/388 418/1/387 
f 418/1/387 115/1/388 114/1/389 
f 418/1/387 114/1/389 419/1/390 
f 114/1/389 112/1/391 419/1/390 
f 419/1/390 112/1/391 111/1/392 
f 419/1/390 111/1/392 420/1/393 
f 111/1/392 109/1/394 420/1/393 
f 420/1/393 109/1/394 108/1/395 
f 420/1/393 108/1/395 421/1/396 
f 108/1/395 106/1/397 421/1/396 
f 421/1/396 106/1/397 105/1/398 
f 421/1/396 105/1/398 422/1/399 
f 105/1/398 103/1/400 422/1/399 
f 422/1/399 103/1/400 102/1/401 
f 422/1/399 102/1/401 423/1/402 
f 102/1/401 100/1/403 423/1/402 
f 423/1/402 100/1/403 99/1/404 
f 423/1/402 99/1/404 424/1/405 
f 99/1/404 97/1/406 424/1/405 
f 424/1/405 97/1/406 96/1/407 
f 424/1/405 96/1/407 425/1/408 
f 96/1/407 94/1/409 425/1/408 
f 425/1/408 94/1/409 93/1/410 
f 425/1/408 93/1/410 401/1/339 
f 401/1/339 93/1/410 91/1/223 
f 401/1/339 91/1/223 89/1/340 
f 27/1/336 426/1/411 25/1/411 
f 25/1/411 426/1/411 427/1/412 
f 25/1/411 427/1/412 23/1/412 
f 23/1/412 427/1/412 428/1/413 
f 23/1/412 428/1/413 21/1/413 
f 21/1/413 428/1/413 429/1/414 
f 21/1/413 429/1/414 19/1/414 
f 19/1/414 429/1/414 430/1/415 
f 19/1/414 430/1/415 17/1/415 
f 17/1/415 430/1/415 431/1/416 
f 17/1/415 431/1/416 15/1/416 
f 15/1/416 431/1/416 432/1/417 
f 15/1/416 432/1/417 13/1/417 
f 13/1/417 432/1/417 433/1/418 
f 13/1/417 433/1/418 11/1/418 
f 11/1/418 433/1/418 434/1/419 
f 11/1/418 434/1/419 9/1/419 
f 9/1/419 434/1/419 435/1/420 
f 9/1/419 435/1/420 7/1/420 
f 7/1/420 435/1/420 436/1/421 
f 7/1/420 436/1/421 5/1/422 
f 5/1/422 436/1/421 437/1/423 
f 5/1/422 437/1/423 3/1/423 
f 3/1/423 437/1/423 438/1/424 
f 3/1/423 438/1/424 51/1/424 
f 51/1/424 438/1/424 439/1/425 
f 51/1/424 439/1/425 49/1/425 
f 49/1/425 439/1/425 440/1/426 
f 49/1/425 440/1/426 47/1/426 
f 47/1/426 440/1/426 441/1/427 
f 47/1/426 441/1/427 45/1/427 
f 45/1/427 441/1/427 442/1/428 
f 45/1/427 442/1/428 43/1/428 
f 43/1/428 442/1/428 443/1/429 
f 43/1/428 443/1/429 41/1/429 
f 41/1/429 443/1/429 444/1/430 
f 41/1/429 444/1/430 39/1/430 
f 39/1/430 444/1/430 445/1/431 
f 39/1/430 445/1/431 37/1/431 
f 37/1/431 445/1/431 446/1/432 
f 37/1/431 446/1/432 35/1/432 
f 35/1/432 446/1/432 447/1/433 
f 35/1/432 447/1/433 33/1/433 
f 33/1/433 447/1/433 448/1/434 
f 33/1/433 448/1/434 31/1/434 
f 31/1/434 448/1/434 449/1/435 
f 31/1/434 449/1/435 29/1/435 
f 29/1/435 449/1/435 450/1/336 
f 29/1/435 450/1/336 27/1/336 
f 27/1/336 450/1/336 426/1/411 
s 1
f 451/1/436 452/1/437 453/1/438 
f 453/1/438 452/1/437 454/1/439 
f 453/1/438 454/1/439 455/1/440 
f 455/1/440 454/1/439 456/1/441 
f 456/1/441 454/1/439 457/1/442 
f 456/1/441 457/1/442 458/1/443 
f 458/1/443 457/1/442 459/1/443 
f 458/1/443 459/1/443 460/1/444 
f 460/1/444 459/1/443 461/1/445 
f 460/1/444 461/1/445 462/1/446 
f 462/1/446 461/1/445 463/1/447 
f 462/1/446 463/1/447 464/1/448 
f 464/1/448 463/1/447 465/1/449 
f 464/1/448 465/1/449 466/1/450 
f 466/1/450 465/1/449 467/1/451 
f 466/1/450 467/1/451 468/1/452 
f 468/1/452 467/1/451 469/1/453 
f 468/1/452 469/1/453 470/1/454 
f 470/1/454 469/1/453 471/1/455 
f 470/1/454 471/1/455 472/1/456 
f 472/1/456 471/1/455 473/1/457 
f 472/1/456 473/1/457 474/1/458 
f 474/1/458 473/1/457 475/1/459 
f 474/1/458 475/1/459 476/1/460 
f 476/1/460 475/1/459 477/1/461 
f 476/1/460 477/1/461 478/1/462 
f 478/1/462 477/1/461 479/1/463 
f 478/1/462 479/1/463 480/1/464 
f 480/1/464 479/1/463 481/1/465 
f 480/1/464 481/1/465 482/1/466 
f 482/1/466 481/1/465 483/1/467 
f 482/1/466 483/1/467 484/1/468 
f 484/1/468 483/1/467 485/1/469 
f 484/1/468 485/1/469 486/1/470 
f 486/1/470 485/1/469 487/1/471 
f 486/1/470 487/1/471 488/1/472 
f 488/1/472 487/1/471 489/1/473 
f 488/1/472 489/1/473 490/1/474 
f 490/1/474 489/1/473 491/1/475 
f 490/1/474 491/1/475 492/1/476 
f 492/1/476 491/1/475 493/1/477 
f 492/1/476 493/1/477 494/1/478 
f 494/1/478 493/1/477 495/1/479 
f 494/1/478 495/1/479 496/1/480 
f 496/1/480 495/1/479 497/1/481 
f 496/1/480 497/1/481 451/1/436 
f 451/1/436 497/1/481 498/1/482 
f 451/1/436 498/1/482 452/1/437 
s 4
f 350/1/483 442/1/484 347/1/484 
f 347/1/484 442/1/484 441/1/483 
f 347/1/484 441/1/483 342/1/483 
f 342/1/483 441/1/483 440/1/483 
f 342/1/483 440/1/483 343/1/485 
f 362/1/485 447/1/485 359/1/485 
f 359/1/485 447/1/485 446/1/485 
f 359/1/485 446/1/485 356/1/484 
f 356/1/484 446/1/485 445/1/484 
f 356/1/484 445/1/484 353/1/483 
f 353/1/483 445/1/484 444/1/483 
f 353/1/483 444/1/483 350/1/483 
f 350/1/483 444/1/483 443/1/483 
f 350/1/483 443/1/483 442/1/484 
f 440/1/483 439/1/485 343/1/485 
f 343/1/485 439/1/485 438/1/483 
f 343/1/485 438/1/483 397/1/483 
f 397/1/483 438/1/483 437/1/485 
f 397/1/483 437/1/485 394/1/484 
f 394/1/484 437/1/485 436/1/486 
f 394/1/484 436/1/486 391/1/486 
f 391/1/486 436/1/486 435/1/484 
f 391/1/486 435/1/484 388/1/485 
f 373/1/483 427/1/483 370/1/485 
f 370/1/485 427/1/483 426/1/485 
f 370/1/485 426/1/485 368/1/483 
f 368/1/483 426/1/485 450/1/485 
f 368/1/483 450/1/485 365/1/484 
f 365/1/484 450/1/485 449/1/486 
f 365/1/484 449/1/486 362/1/485 
f 362/1/485 449/1/486 448/1/484 
f 362/1/485 448/1/484 447/1/485 
f 435/1/484 434/1/483 388/1/485 
f 388/1/485 434/1/483 433/1/483 
f 388/1/485 433/1/483 385/1/484 
f 385/1/484 433/1/483 432/1/486 
f 385/1/484 432/1/486 382/1/485 
f 382/1/485 432/1/486 431/1/485 
f 382/1/485 431/1/485 379/1/485 
f 379/1/485 431/1/485 430/1/484 
f 379/1/485 430/1/484 376/1/484 
f 376/1/484 430/1/484 429/1/484 
f 376/1/484 429/1/484 373/1/483 
f 373/1/483 429/1/484 428/1/484 
f 373/1/483 428/1/484 427/1/483 
f 339/1/487 414/1/487 336/1/488 
f 336/1/488 414/1/487 415/1/488 
f 336/1/488 415/1/488 333/1/488 
f 333/1/488 415/1/488 416/1/488 
f 333/1/488 416/1/488 330/1/488 
f 285/1/487 412/1/487 339/1/487 
f 339/1/487 412/1/487 413/1/487 
f 339/1/487 413/1/487 414/1/487 
f 295/1/489 407/1/487 292/1/487 
f 292/1/487 407/1/487 408/1/487 
f 292/1/487 408/1/487 289/1/487 
f 289/1/487 408/1/487 409/1/490 
f 289/1/487 409/1/490 284/1/490 
f 284/1/490 409/1/490 410/1/489 
f 284/1/490 410/1/489 285/1/487 
f 285/1/487 410/1/489 411/1/488 
f 285/1/487 411/1/488 412/1/487 
f 304/1/490 403/1/490 301/1/487 
f 301/1/487 403/1/490 404/1/490 
f 301/1/487 404/1/490 298/1/488 
f 298/1/488 404/1/490 405/1/488 
f 298/1/488 405/1/488 295/1/489 
f 295/1/489 405/1/488 406/1/487 
f 295/1/489 406/1/487 407/1/487 
f 315/1/488 424/1/488 312/1/489 
f 312/1/489 424/1/488 425/1/490 
f 312/1/489 425/1/490 310/1/490 
f 310/1/490 425/1/490 401/1/490 
f 310/1/490 401/1/490 307/1/490 
f 307/1/490 401/1/490 400/1/490 
f 307/1/490 400/1/490 304/1/490 
f 304/1/490 400/1/490 402/1/490 
f 304/1/490 402/1/490 403/1/490 
f 416/1/488 417/1/488 330/1/488 
f 330/1/488 417/1/488 418/1/487 
f 330/1/488 418/1/487 327/1/490 
f 327/1/490 418/1/487 419/1/490 
f 327/1/490 419/1/490 324/1/487 
f 324/1/487 419/1/490 420/1/488 
f 324/1/487 420/1/488 321/1/487 
f 321/1/487 420/1/488 421/1/488 
f 321/1/487 421/1/488 318/1/490 
f 318/1/490 421/1/488 422/1/490 
f 318/1/490 422/1/490 315/1/488 
f 315/1/488 422/1/490 423/1/488 
f 315/1/488 423/1/488 424/1/488 
s 16
f 215/1/491 214/1/492 499/1/493 
f 499/1/493 500/1/494 215/1/491 
f 215/1/491 500/1/494 501/1/495 
f 215/1/491 501/1/495 211/1/496 
f 251/1/497 502/1/498 503/1/499 
f 251/1/497 503/1/499 264/1/491 
f 264/1/491 503/1/499 504/1/492 
f 264/1/491 504/1/492 266/1/492 
f 505/1/500 275/1/501 274/1/502 
f 505/1/500 274/1/502 506/1/503 
f 506/1/503 274/1/502 272/1/504 
f 506/1/503 272/1/504 507/1/505 
f 507/1/505 272/1/504 270/1/506 
f 507/1/505 270/1/506 508/1/507 
f 508/1/507 270/1/506 269/1/508 
f 508/1/507 269/1/508 509/1/509 
f 220/1/510 510/1/511 221/1/512 
f 221/1/512 510/1/511 511/1/513 
f 221/1/512 511/1/513 223/1/514 
f 223/1/514 511/1/513 225/1/515 
f 225/1/515 511/1/513 512/1/516 
f 225/1/515 512/1/516 226/1/517 
f 226/1/517 512/1/516 228/1/518 
f 228/1/518 512/1/516 513/1/519 
f 228/1/518 513/1/519 217/1/520 
s 2
f 514/1/68 137/1/68 136/1/68 
s 16
f 214/1/492 217/1/520 499/1/493 
f 499/1/493 217/1/520 513/1/519 
s 4
f 234/1/521 133/1/522 232/1/521 
f 232/1/521 133/1/522 132/1/522 
f 232/1/521 132/1/522 139/1/521 
f 514/1/523 281/1/524 137/1/523 
f 137/1/523 281/1/524 283/1/524 
f 137/1/523 283/1/524 138/1/524 
s 1
f 515/1/525 516/1/526 517/1/527 
f 517/1/527 516/1/526 518/1/528 
f 517/1/527 518/1/528 519/1/528 
f 519/1/528 518/1/528 520/1/529 
f 519/1/528 520/1/529 521/1/530 
f 521/1/530 520/1/529 522/1/531 
f 521/1/530 522/1/531 523/1/532 
f 523/1/532 522/1/531 524/1/533 
f 523/1/532 524/1/533 525/1/533 
f 525/1/533 524/1/533 526/1/534 
f 525/1/533 526/1/534 527/1/535 
f 527/1/535 526/1/534 528/1/536 
f 527/1/535 528/1/536 529/1/536 
f 529/1/536 528/1/536 530/1/537 
f 529/1/536 530/1/537 531/1/537 
f 531/1/537 530/1/537 532/1/538 
f 531/1/537 532/1/538 533/1/538 
f 533/1/538 532/1/538 534/1/539 
f 533/1/538 534/1/539 535/1/539 
f 535/1/539 534/1/539 536/1/103 
f 535/1/539 536/1/103 537/1/104 
f 537/1/104 536/1/103 538/1/540 
f 537/1/104 538/1/540 539/1/540 
f 539/1/540 538/1/540 540/1/541 
f 539/1/540 540/1/541 541/1/541 
f 541/1/541 540/1/541 542/1/542 
f 541/1/541 542/1/542 543/1/542 
f 543/1/542 542/1/542 544/1/543 
f 543/1/542 544/1/543 545/1/543 
f 545/1/543 544/1/543 546/1/544 
f 545/1/543 546/1/544 547/1/544 
f 547/1/544 546/1/544 548/1/545 
f 547/1/544 548/1/545 549/1/545 
f 549/1/545 548/1/545 550/1/546 
f 549/1/545 550/1/546 551/1/546 
f 551/1/546 550/1/546 552/1/547 
f 551/1/546 552/1/547 553/1/547 
f 553/1/547 552/1/547 554/1/548 
f 553/1/547 554/1/548 555/1/548 
f 555/1/548 554/1/548 556/1/549 
f 555/1/548 556/1/549 557/1/550 
f 557/1/550 556/1/549 515/1/525 
f 557/1/550 515/1/525 517/1/527 
s 4
f 558/1/551 559/1/552 277/1/553 
f 560/1/554 279/1/555 559/1/552 
f 559/1/552 279/1/555 278/1/556 
f 559/1/552 278/1/556 277/1/553 
f 561/1/557 282/1/558 560/1/554 
f 560/1/554 282/1/558 280/1/559 
f 560/1/554 280/1/559 279/1/555 
f 560/1/554 562/1/560 561/1/557 
f 561/1/557 562/1/560 563/1/561 
f 561/1/557 563/1/561 564/1/561 
f 564/1/561 563/1/561 565/1/562 
f 564/1/561 565/1/562 566/1/562 
f 566/1/562 565/1/562 567/1/563 
f 566/1/562 567/1/563 568/1/563 
f 568/1/563 567/1/563 569/1/564 
f 568/1/563 569/1/564 570/1/564 
f 570/1/564 569/1/564 571/1/565 
f 570/1/564 571/1/565 572/1/565 
f 572/1/565 571/1/565 573/1/566 
f 572/1/565 573/1/566 574/1/566 
f 574/1/566 573/1/566 575/1/567 
f 574/1/566 575/1/567 576/1/567 
f 576/1/567 575/1/567 577/1/568 
f 576/1/567 577/1/568 578/1/569 
f 578/1/569 577/1/568 233/1/570 
f 233/1/570 577/1/568 579/1/571 
f 233/1/570 579/1/571 235/1/572 
f 580/1/573 231/1/574 581/1/575 
f 581/1/575 231/1/574 230/1/576 
f 581/1/575 230/1/576 579/1/571 
f 579/1/571 230/1/576 229/1/577 
f 579/1/571 229/1/577 235/1/572 
f 277/1/553 582/1/578 558/1/551 
f 558/1/551 582/1/578 583/1/579 
f 558/1/551 583/1/579 584/1/579 
f 584/1/579 583/1/579 585/1/580 
f 584/1/579 585/1/580 586/1/580 
f 586/1/580 585/1/580 587/1/581 
f 586/1/580 587/1/581 588/1/581 
f 588/1/581 587/1/581 589/1/582 
f 588/1/581 589/1/582 590/1/582 
f 590/1/582 589/1/582 591/1/583 
f 590/1/582 591/1/583 592/1/583 
f 592/1/583 591/1/583 593/1/584 
f 592/1/583 593/1/584 594/1/585 
f 594/1/585 593/1/584 595/1/586 
f 594/1/585 595/1/586 596/1/586 
f 596/1/586 595/1/586 580/1/573 
f 596/1/586 580/1/573 597/1/587 
f 597/1/587 580/1/573 581/1/575 
s 2
f 586/1/102 588/1/588 517/1/68 
f 517/1/68 588/1/588 590/1/68 
f 517/1/68 590/1/68 557/1/68 
f 557/1/68 590/1/68 592/1/68 
f 557/1/68 592/1/68 555/1/589 
f 555/1/589 592/1/68 594/1/588 
f 555/1/589 594/1/588 553/1/68 
f 553/1/68 594/1/588 596/1/68 
f 553/1/68 596/1/68 551/1/68 
f 551/1/68 596/1/68 597/1/589 
f 551/1/68 597/1/589 549/1/589 
f 549/1/589 597/1/589 581/1/589 
f 549/1/589 581/1/589 547/1/588 
f 547/1/588 581/1/589 579/1/588 
f 547/1/588 579/1/588 545/1/588 
f 545/1/588 579/1/588 577/1/588 
f 545/1/588 577/1/588 543/1/588 
f 543/1/588 577/1/588 575/1/68 
f 543/1/588 575/1/68 541/1/102 
f 541/1/102 575/1/68 573/1/102 
f 541/1/102 573/1/102 539/1/102 
f 539/1/102 573/1/102 571/1/102 
f 539/1/102 571/1/102 537/1/68 
f 537/1/68 571/1/102 569/1/68 
f 537/1/68 569/1/68 535/1/68 
f 535/1/68 569/1/68 567/1/68 
f 535/1/68 567/1/68 533/1/68 
f 533/1/68 567/1/68 565/1/68 
f 533/1/68 565/1/68 531/1/589 
f 531/1/589 565/1/68 563/1/589 
f 531/1/589 563/1/589 529/1/68 
f 529/1/68 563/1/589 562/1/68 
f 529/1/68 562/1/68 527/1/588 
f 527/1/588 562/1/68 560/1/588 
f 527/1/588 560/1/588 525/1/102 
f 525/1/102 560/1/588 559/1/102 
f 525/1/102 559/1/102 523/1/102 
f 523/1/102 559/1/102 558/1/102 
f 523/1/102 558/1/102 521/1/102 
f 521/1/102 558/1/102 584/1/102 
f 521/1/102 584/1/102 519/1/102 
f 519/1/102 584/1/102 586/1/102 
f 519/1/102 586/1/102 517/1/68 
s 8
f 134/1/485 131/1/484 133/1/485 
f 199/1/484 133/1/485 202/1/486 
f 202/1/486 133/1/485 204/1/485 
f 199/1/484 189/1/483 133/1/485 
f 133/1/485 189/1/483 128/1/483 
f 133/1/485 128/1/483 134/1/485 
f 134/1/485 128/1/483 130/1/486 
f 134/1/485 130/1/486 598/1/483 
f 599/1/485 600/1/486 130/1/486 
f 130/1/486 600/1/486 601/1/484 
f 601/1/484 602/1/483 130/1/486 
f 130/1/486 602/1/483 603/1/486 
f 130/1/486 603/1/486 598/1/483 
f 219/1/484 212/1/486 229/1/483 
f 229/1/483 212/1/486 210/1/486 
f 229/1/483 210/1/486 234/1/483 
f 234/1/483 210/1/486 208/1/485 
f 234/1/483 208/1/485 133/1/485 
f 133/1/485 208/1/485 206/1/485 
f 133/1/485 206/1/485 204/1/485 
f 196/1/486 198/1/486 194/1/485 
f 194/1/485 198/1/486 189/1/483 
f 194/1/485 189/1/483 193/1/483 
f 193/1/483 189/1/483 199/1/484 
f 224/1/483 227/1/484 222/1/484 
f 222/1/484 227/1/484 218/1/484 
f 222/1/484 218/1/484 219/1/484 
f 219/1/484 218/1/484 212/1/486 
f 212/1/486 218/1/484 213/1/485 
f 212/1/486 213/1/485 216/1/484 
s 2
f 578/1/102 233/1/102 232/1/588 
f 566/1/102 138/1/589 564/1/589 
f 564/1/589 138/1/589 283/1/589 
f 564/1/589 283/1/589 561/1/102 
f 561/1/102 283/1/589 282/1/102 
f 566/1/102 568/1/588 138/1/589 
f 138/1/589 568/1/588 570/1/588 
f 138/1/589 570/1/588 139/1/588 
f 570/1/588 572/1/588 139/1/588 
f 139/1/588 572/1/588 574/1/588 
f 139/1/588 574/1/588 232/1/588 
f 232/1/588 574/1/588 576/1/588 
f 232/1/588 576/1/588 578/1/102 
s 16
f 582/1/589 277/1/589 275/1/501 
f 505/1/500 604/1/590 589/1/588 
f 589/1/588 604/1/590 605/1/590 
f 589/1/588 605/1/590 591/1/588 
f 591/1/588 605/1/590 510/1/511 
f 589/1/588 587/1/68 505/1/500 
f 505/1/500 587/1/68 585/1/68 
f 505/1/500 585/1/68 275/1/501 
f 275/1/501 585/1/68 583/1/102 
f 275/1/501 583/1/102 582/1/589 
f 231/1/588 580/1/588 220/1/510 
f 220/1/510 580/1/588 595/1/68 
f 220/1/510 595/1/68 510/1/511 
f 510/1/511 595/1/68 593/1/589 
f 510/1/511 593/1/589 591/1/588 
f 266/1/492 504/1/492 269/1/508 
f 269/1/508 504/1/492 509/1/509 
s 8
f 606/1/489 607/1/488 238/1/489 
f 514/1/489 263/1/488 262/1/489 
f 262/1/489 260/1/488 514/1/489 
f 514/1/489 260/1/488 258/1/489 
f 514/1/489 258/1/489 281/1/489 
f 237/1/487 135/1/488 238/1/489 
f 238/1/489 135/1/488 608/1/487 
f 238/1/489 608/1/487 609/1/489 
f 136/1/490 135/1/488 514/1/489 
f 514/1/489 135/1/488 237/1/487 
f 514/1/489 237/1/487 263/1/488 
f 263/1/488 237/1/487 239/1/487 
f 263/1/488 239/1/487 242/1/488 
f 258/1/489 256/1/488 281/1/489 
f 281/1/489 256/1/488 254/1/487 
f 281/1/489 254/1/487 279/1/489 
f 279/1/489 254/1/487 252/1/489 
f 609/1/489 610/1/488 238/1/489 
f 238/1/489 610/1/488 611/1/490 
f 238/1/489 611/1/490 606/1/489 
f 248/1/490 246/1/489 239/1/487 
f 239/1/487 246/1/489 243/1/490 
f 239/1/487 243/1/490 242/1/488 
f 271/1/490 273/1/490 268/1/487 
f 268/1/487 273/1/490 276/1/487 
f 268/1/487 276/1/487 267/1/489 
f 267/1/489 276/1/487 279/1/489 
f 267/1/489 279/1/489 265/1/489 
f 265/1/489 279/1/489 252/1/489 
s 16
f 240/1/591 612/1/592 613/1/593 
f 240/1/591 613/1/593 249/1/594 
f 249/1/594 613/1/593 614/1/595 
f 249/1/594 614/1/595 247/1/596 
f 247/1/596 614/1/595 615/1/597 
f 247/1/596 615/1/597 244/1/598 
f 244/1/598 615/1/597 616/1/599 
f 244/1/598 616/1/599 245/1/600 
f 245/1/600 616/1/599 617/1/601 
f 245/1/600 617/1/601 250/1/602 
f 250/1/602 617/1/601 618/1/603 
f 250/1/602 618/1/603 261/1/604 
f 261/1/604 618/1/603 619/1/605 
f 261/1/604 619/1/605 259/1/606 
f 259/1/606 619/1/605 620/1/607 
f 259/1/606 620/1/607 257/1/608 
f 257/1/608 620/1/607 621/1/609 
f 257/1/608 621/1/609 255/1/610 
f 255/1/610 621/1/609 622/1/611 
f 255/1/610 622/1/611 253/1/612 
f 253/1/612 622/1/611 502/1/498 
f 253/1/612 502/1/498 251/1/497 
f 211/1/496 501/1/495 623/1/613 
f 211/1/496 623/1/613 209/1/614 
f 209/1/614 623/1/613 624/1/615 
f 209/1/614 624/1/615 207/1/616 
f 207/1/616 624/1/615 625/1/617 
f 207/1/616 625/1/617 205/1/618 
f 205/1/618 625/1/617 626/1/619 
f 205/1/618 626/1/619 203/1/620 
f 203/1/620 626/1/619 627/1/621 
f 203/1/620 627/1/621 201/1/622 
f 201/1/622 627/1/621 628/1/623 
f 201/1/622 628/1/623 200/1/624 
f 200/1/624 628/1/623 629/1/625 
f 200/1/624 629/1/625 191/1/626 
f 630/1/627 188/1/628 197/1/629 
f 630/1/627 197/1/629 631/1/630 
f 631/1/630 197/1/629 195/1/631 
f 631/1/630 195/1/631 632/1/632 
f 632/1/632 195/1/631 192/1/633 
f 632/1/632 192/1/633 633/1/634 
f 633/1/634 192/1/633 191/1/626 
f 633/1/634 191/1/626 629/1/625 
s 2
f 634/1/488 635/1/488 121/1/488 
f 121/1/488 635/1/488 636/1/488 
f 121/1/488 636/1/488 119/1/488 
f 119/1/488 636/1/488 637/1/488 
f 119/1/488 637/1/488 116/1/489 
f 505/1/490 506/1/490 604/1/487 
f 604/1/487 506/1/490 507/1/490 
f 604/1/487 507/1/490 508/1/490 
f 615/1/489 614/1/487 638/1/635 
f 638/1/635 614/1/487 613/1/490 
f 638/1/635 613/1/490 612/1/489 
f 121/1/488 124/1/488 634/1/488 
f 634/1/488 124/1/488 53/1/488 
f 634/1/488 53/1/488 639/1/490 
f 639/1/490 53/1/488 52/1/490 
f 639/1/490 52/1/490 640/1/490 
f 640/1/490 52/1/490 638/1/635 
f 638/1/635 52/1/490 57/1/489 
f 638/1/635 57/1/489 615/1/489 
f 615/1/489 57/1/489 60/1/487 
f 615/1/489 60/1/487 616/1/489 
f 509/1/489 504/1/487 85/1/487 
f 641/1/488 642/1/488 98/1/489 
f 113/1/490 643/1/489 110/1/488 
f 110/1/488 643/1/489 644/1/489 
f 110/1/488 644/1/489 107/1/488 
f 60/1/487 63/1/490 616/1/489 
f 616/1/489 63/1/490 66/1/487 
f 616/1/489 66/1/487 617/1/488 
f 617/1/488 66/1/487 69/1/488 
f 85/1/487 504/1/487 81/1/489 
f 98/1/489 642/1/488 95/1/488 
f 95/1/488 642/1/488 645/1/489 
f 95/1/488 645/1/489 92/1/490 
f 75/1/487 620/1/487 72/1/490 
f 72/1/490 620/1/487 619/1/489 
f 72/1/490 619/1/489 69/1/488 
f 69/1/488 619/1/489 618/1/487 
f 69/1/488 618/1/487 617/1/488 
f 504/1/487 503/1/489 81/1/489 
f 81/1/489 503/1/489 502/1/489 
f 81/1/489 502/1/489 78/1/489 
f 78/1/489 502/1/489 622/1/489 
f 78/1/489 622/1/489 75/1/487 
f 75/1/487 622/1/489 621/1/487 
f 75/1/487 621/1/487 620/1/487 
f 98/1/489 101/1/490 641/1/488 
f 641/1/488 101/1/490 104/1/488 
f 641/1/488 104/1/488 646/1/488 
f 646/1/488 104/1/488 107/1/488 
f 646/1/488 107/1/488 647/1/487 
f 647/1/487 107/1/488 644/1/489 
f 637/1/488 648/1/487 116/1/489 
f 116/1/489 648/1/487 649/1/487 
f 116/1/489 649/1/487 113/1/490 
f 113/1/490 649/1/487 650/1/490 
f 113/1/490 650/1/490 643/1/489 
f 645/1/489 651/1/490 92/1/490 
f 92/1/490 651/1/490 652/1/489 
f 92/1/490 652/1/489 90/1/487 
f 90/1/487 652/1/489 653/1/488 
f 90/1/487 653/1/488 88/1/487 
f 88/1/487 653/1/488 604/1/487 
f 88/1/487 604/1/487 85/1/487 
f 85/1/487 604/1/487 508/1/490 
f 85/1/487 508/1/490 509/1/489 
f 654/1/483 630/1/483 655/1/483 
f 655/1/483 630/1/483 631/1/484 
f 655/1/483 631/1/484 656/1/483 
f 513/1/484 512/1/484 605/1/486 
f 605/1/486 512/1/484 511/1/484 
f 605/1/486 511/1/484 510/1/484 
f 633/1/484 32/1/486 30/1/486 
f 631/1/484 632/1/486 656/1/483 
f 656/1/483 632/1/486 633/1/484 
f 656/1/483 633/1/484 28/1/483 
f 28/1/483 633/1/484 30/1/486 
f 501/1/486 46/1/486 623/1/486 
f 623/1/486 46/1/486 44/1/486 
f 623/1/486 44/1/486 624/1/483 
f 624/1/483 44/1/486 42/1/483 
f 624/1/483 42/1/483 625/1/483 
f 625/1/483 42/1/483 40/1/483 
f 32/1/486 633/1/484 34/1/483 
f 34/1/483 633/1/484 629/1/484 
f 34/1/483 629/1/484 36/1/483 
f 36/1/483 629/1/484 628/1/485 
f 36/1/483 628/1/485 38/1/483 
f 38/1/483 628/1/485 627/1/484 
f 38/1/483 627/1/484 40/1/483 
f 40/1/483 627/1/484 626/1/485 
f 40/1/483 626/1/485 625/1/483 
f 28/1/483 26/1/483 656/1/483 
f 656/1/483 26/1/483 24/1/483 
f 656/1/483 24/1/483 657/1/485 
f 657/1/485 24/1/483 22/1/485 
f 657/1/485 22/1/485 658/1/485 
f 658/1/485 22/1/485 20/1/485 
f 14/1/485 12/1/484 659/1/485 
f 16/1/485 660/1/485 18/1/486 
f 18/1/486 660/1/485 661/1/486 
f 18/1/486 661/1/486 20/1/485 
f 20/1/485 661/1/486 662/1/485 
f 20/1/485 662/1/485 658/1/485 
f 659/1/485 12/1/484 663/1/483 
f 663/1/483 12/1/484 10/1/483 
f 663/1/483 10/1/483 664/1/483 
f 664/1/483 10/1/483 8/1/483 
f 664/1/483 8/1/483 665/1/485 
f 8/1/483 6/1/484 665/1/485 
f 665/1/485 6/1/484 4/1/485 
f 665/1/485 4/1/485 666/1/486 
f 666/1/486 4/1/485 2/1/484 
f 501/1/486 500/1/486 46/1/486 
f 46/1/486 500/1/486 499/1/483 
f 46/1/486 499/1/483 48/1/484 
f 48/1/484 499/1/483 513/1/484 
f 48/1/484 513/1/484 50/1/483 
f 50/1/483 513/1/484 605/1/486 
f 50/1/483 605/1/486 1/1/484 
f 659/1/485 667/1/485 14/1/485 
f 14/1/485 667/1/485 668/1/486 
f 14/1/485 668/1/486 16/1/485 
f 16/1/485 668/1/486 669/1/483 
f 16/1/485 669/1/483 660/1/485 
f 605/1/486 670/1/486 1/1/484 
f 1/1/484 670/1/486 671/1/484 
f 1/1/484 671/1/484 2/1/484 
f 2/1/484 671/1/484 672/1/484 
f 2/1/484 672/1/484 666/1/486 
s 4
f 455/1/636 456/1/637 335/1/638 
f 458/1/639 460/1/640 374/1/641 
f 374/1/641 460/1/640 462/1/642 
f 462/1/642 464/1/643 374/1/641 
f 374/1/641 464/1/643 466/1/644 
f 374/1/641 466/1/644 375/1/645 
f 375/1/645 466/1/644 468/1/646 
f 375/1/645 468/1/646 377/1/647 
f 474/1/648 476/1/649 380/1/650 
f 380/1/650 476/1/649 478/1/651 
f 380/1/650 478/1/651 480/1/652 
f 377/1/647 468/1/646 378/1/653 
f 378/1/653 468/1/646 470/1/654 
f 378/1/653 470/1/654 380/1/650 
f 380/1/650 470/1/654 472/1/655 
f 380/1/650 472/1/655 474/1/648 
f 482/1/656 484/1/657 329/1/658 
f 329/1/658 484/1/657 486/1/659 
f 329/1/658 486/1/659 488/1/660 
f 488/1/660 490/1/661 329/1/658 
f 329/1/658 490/1/661 492/1/662 
f 329/1/658 492/1/662 331/1/663 
f 331/1/663 492/1/662 494/1/664 
f 331/1/663 494/1/664 332/1/665 
f 332/1/665 494/1/664 496/1/666 
f 332/1/665 496/1/666 334/1/667 
f 334/1/667 496/1/666 451/1/668 
f 334/1/667 451/1/668 335/1/638 
f 335/1/638 451/1/668 453/1/669 
f 335/1/638 453/1/669 455/1/636 
f 143/1/670 141/1/671 392/1/672 
f 187/1/673 185/1/674 317/1/675 
f 317/1/675 185/1/674 183/1/676 
f 167/1/677 165/1/678 323/1/679 
f 167/1/677 323/1/679 169/1/680 
f 183/1/676 181/1/681 317/1/675 
f 317/1/675 181/1/681 179/1/682 
f 317/1/675 179/1/682 319/1/683 
f 319/1/683 179/1/682 177/1/684 
f 319/1/683 177/1/684 320/1/685 
f 320/1/685 177/1/684 175/1/686 
f 320/1/685 175/1/686 322/1/687 
f 322/1/687 175/1/686 173/1/688 
f 322/1/687 173/1/688 323/1/679 
f 323/1/679 173/1/688 171/1/689 
f 323/1/679 171/1/689 169/1/680 
f 163/1/690 161/1/691 386/1/692 
f 386/1/692 161/1/691 159/1/693 
f 386/1/692 159/1/693 157/1/694 
f 157/1/694 155/1/695 386/1/692 
f 386/1/692 155/1/695 153/1/696 
f 386/1/692 153/1/696 387/1/697 
f 387/1/697 153/1/696 151/1/698 
f 387/1/697 151/1/698 389/1/699 
f 389/1/699 151/1/698 149/1/700 
f 389/1/699 149/1/700 390/1/701 
f 390/1/701 149/1/700 147/1/702 
f 390/1/701 147/1/702 392/1/672 
f 392/1/672 147/1/702 145/1/703 
f 392/1/672 145/1/703 143/1/670 
f 480/1/652 482/1/656 380/1/650 
f 380/1/650 482/1/656 329/1/658 
f 380/1/650 329/1/658 381/1/704 
f 381/1/704 329/1/658 328/1/704 
f 381/1/704 328/1/704 383/1/705 
f 383/1/705 328/1/704 326/1/705 
f 383/1/705 326/1/705 384/1/706 
f 384/1/706 326/1/705 325/1/706 
f 384/1/706 325/1/706 386/1/692 
f 386/1/692 325/1/706 323/1/679 
f 386/1/692 323/1/679 163/1/690 
f 163/1/690 323/1/679 165/1/678 
f 141/1/671 187/1/673 392/1/672 
f 392/1/672 187/1/673 317/1/675 
f 392/1/672 317/1/675 393/1/707 
f 393/1/707 317/1/675 316/1/707 
f 393/1/707 316/1/707 395/1/708 
f 395/1/708 316/1/707 314/1/709 
f 395/1/708 314/1/709 396/1/710 
f 396/1/710 314/1/709 313/1/710 
f 396/1/710 313/1/710 398/1/15 
f 398/1/15 313/1/710 311/1/15 
f 398/1/15 311/1/15 399/1/711 
f 399/1/711 311/1/15 309/1/712 
f 399/1/711 309/1/712 344/1/713 
f 344/1/713 309/1/712 308/1/714 
f 344/1/713 308/1/714 345/1/715 
f 345/1/715 308/1/714 306/1/715 
f 345/1/715 306/1/715 346/1/716 
f 346/1/716 306/1/715 305/1/717 
f 346/1/716 305/1/717 348/1/718 
f 348/1/718 305/1/717 303/1/719 
f 348/1/718 303/1/719 349/1/720 
f 349/1/720 303/1/719 302/1/721 
f 349/1/720 302/1/721 351/1/722 
f 351/1/722 302/1/721 300/1/722 
f 351/1/722 300/1/722 352/1/723 
f 352/1/723 300/1/722 299/1/724 
f 352/1/723 299/1/724 354/1/725 
f 354/1/725 299/1/724 297/1/725 
f 354/1/725 297/1/725 355/1/726 
f 355/1/726 297/1/725 296/1/726 
f 355/1/726 296/1/726 357/1/727 
f 357/1/727 296/1/726 294/1/728 
f 357/1/727 294/1/728 358/1/729 
f 358/1/729 294/1/728 293/1/729 
f 358/1/729 293/1/729 360/1/730 
f 360/1/730 293/1/729 291/1/731 
f 360/1/730 291/1/731 361/1/732 
f 361/1/732 291/1/731 290/1/732 
f 361/1/732 290/1/732 363/1/733 
f 363/1/733 290/1/732 288/1/734 
f 363/1/733 288/1/734 364/1/735 
f 364/1/735 288/1/734 287/1/735 
f 364/1/735 287/1/735 366/1/736 
f 366/1/736 287/1/735 286/1/736 
f 366/1/736 286/1/736 367/1/737 
f 367/1/737 286/1/736 341/1/738 
f 367/1/737 341/1/738 369/1/68 
f 369/1/68 341/1/738 340/1/102 
f 369/1/68 340/1/102 371/1/739 
f 371/1/739 340/1/102 338/1/739 
f 371/1/739 338/1/739 372/1/740 
f 372/1/740 338/1/739 337/1/741 
f 372/1/740 337/1/741 374/1/641 
f 374/1/641 337/1/741 335/1/638 
f 374/1/641 335/1/638 458/1/639 
f 458/1/639 335/1/638 456/1/637 
s 16
f 644/1/742 643/1/743 667/1/742 
f 667/1/742 643/1/743 668/1/743 
s 2
f 483/1/744 481/1/745 673/1/746 
f 673/1/746 481/1/745 479/1/747 
f 673/1/746 479/1/747 477/1/748 
f 493/1/749 491/1/750 673/1/746 
f 673/1/746 491/1/750 489/1/751 
f 489/1/751 487/1/752 673/1/746 
f 673/1/746 487/1/752 485/1/753 
f 673/1/746 485/1/753 483/1/744 
f 477/1/748 475/1/754 673/1/746 
f 673/1/746 475/1/754 473/1/755 
f 673/1/746 473/1/755 471/1/756 
f 454/1/757 452/1/758 674/1/759 
f 452/1/758 498/1/760 674/1/759 
f 674/1/759 498/1/760 497/1/761 
f 674/1/759 497/1/761 495/1/762 
f 493/1/749 673/1/746 495/1/762 
f 495/1/762 673/1/746 471/1/756 
f 495/1/762 471/1/756 674/1/759 
f 674/1/759 471/1/756 469/1/763 
f 674/1/759 469/1/763 467/1/764 
f 467/1/764 465/1/765 674/1/759 
f 674/1/759 465/1/765 463/1/766 
f 674/1/759 463/1/766 461/1/767 
f 461/1/767 459/1/768 674/1/759 
f 674/1/759 459/1/768 457/1/769 
f 674/1/759 457/1/769 454/1/757 
f 186/1/770 140/1/771 675/1/772 
f 675/1/772 140/1/771 142/1/773 
f 675/1/772 142/1/773 144/1/774 
f 176/1/775 178/1/776 675/1/772 
f 675/1/772 178/1/776 180/1/777 
f 180/1/777 182/1/778 675/1/772 
f 675/1/772 182/1/778 184/1/779 
f 675/1/772 184/1/779 186/1/770 
f 144/1/774 146/1/780 675/1/772 
f 675/1/772 146/1/780 148/1/781 
f 675/1/772 148/1/781 150/1/782 
f 166/1/783 168/1/784 676/1/785 
f 168/1/784 170/1/786 676/1/785 
f 676/1/785 170/1/786 172/1/787 
f 676/1/785 172/1/787 174/1/788 
f 176/1/775 675/1/772 174/1/788 
f 174/1/788 675/1/772 150/1/782 
f 174/1/788 150/1/782 676/1/785 
f 676/1/785 150/1/782 152/1/789 
f 676/1/785 152/1/789 154/1/790 
f 154/1/790 156/1/791 676/1/785 
f 676/1/785 156/1/791 158/1/792 
f 676/1/785 158/1/792 160/1/793 
f 160/1/793 162/1/794 676/1/785 
f 676/1/785 162/1/794 164/1/795 
f 676/1/785 164/1/795 166/1/783 
s 16
f 664/1/796 665/1/797 641/1/796 
f 641/1/796 665/1/797 642/1/797 
s 2
f 677/1/102 540/1/68 678/1/588 
f 678/1/588 540/1/68 538/1/588 
f 678/1/588 538/1/588 679/1/588 
f 680/1/68 681/1/588 520/1/588 
f 538/1/588 536/1/588 679/1/588 
f 679/1/588 536/1/588 534/1/68 
f 679/1/588 534/1/68 682/1/102 
f 682/1/102 534/1/68 532/1/102 
f 682/1/102 532/1/102 683/1/68 
f 683/1/68 532/1/102 530/1/68 
f 683/1/68 530/1/68 684/1/589 
f 685/1/68 546/1/68 686/1/102 
f 686/1/102 546/1/68 544/1/102 
f 686/1/102 544/1/102 677/1/102 
f 677/1/102 544/1/102 542/1/68 
f 677/1/102 542/1/68 540/1/68 
f 520/1/588 518/1/589 680/1/68 
f 680/1/68 518/1/589 516/1/102 
f 680/1/68 516/1/102 687/1/589 
f 530/1/68 528/1/588 684/1/589 
f 684/1/589 528/1/588 526/1/102 
f 684/1/589 526/1/102 688/1/102 
f 688/1/102 526/1/102 524/1/589 
f 688/1/102 524/1/589 681/1/588 
f 681/1/588 524/1/589 522/1/68 
f 681/1/588 522/1/68 520/1/588 
f 689/1/588 550/1/102 685/1/68 
f 685/1/68 550/1/102 548/1/102 
f 685/1/68 548/1/102 546/1/68 
f 516/1/102 515/1/102 687/1/589 
f 687/1/589 515/1/102 556/1/102 
f 687/1/589 556/1/102 690/1/588 
f 690/1/588 556/1/102 554/1/68 
f 690/1/588 554/1/68 689/1/588 
f 689/1/588 554/1/68 552/1/588 
f 689/1/588 552/1/588 550/1/102 
s 1
f 691/1/588 692/1/798 693/1/799 
f 691/1/588 694/1/800 695/1/801 
f 696/1/802 694/1/800 691/1/588 
f 693/1/799 696/1/802 691/1/588 
f 691/1/588 697/1/803 698/1/804 
f 699/1/805 697/1/803 691/1/588 
f 695/1/801 699/1/805 691/1/588 
f 691/1/588 700/1/806 701/1/807 
f 702/1/808 700/1/806 691/1/588 
f 698/1/804 702/1/808 691/1/588 
f 691/1/588 703/1/809 704/1/810 
f 705/1/811 703/1/809 691/1/588 
f 701/1/807 705/1/811 691/1/588 
f 704/1/810 692/1/798 691/1/588 
s 4
f 679/1/812 698/1/813 678/1/528 
f 678/1/528 698/1/813 697/1/528 
f 678/1/528 697/1/528 677/1/814 
f 677/1/814 697/1/528 699/1/814 
f 677/1/814 699/1/814 686/1/533 
f 686/1/533 699/1/814 695/1/533 
f 686/1/533 695/1/533 685/1/815 
f 685/1/815 695/1/533 694/1/815 
f 685/1/815 694/1/815 689/1/816 
f 689/1/816 694/1/815 696/1/537 
f 689/1/816 696/1/537 690/1/817 
f 690/1/817 696/1/537 693/1/817 
f 690/1/817 693/1/817 687/1/103 
f 687/1/103 693/1/817 692/1/818 
f 687/1/103 692/1/818 680/1/819 
f 680/1/819 692/1/818 704/1/820 
f 680/1/819 704/1/820 681/1/542 
f 681/1/542 704/1/820 703/1/542 
f 681/1/542 703/1/542 688/1/821 
f 688/1/821 703/1/542 705/1/821 
f 688/1/821 705/1/821 684/1/822 
f 684/1/822 705/1/821 701/1/822 
f 684/1/822 701/1/822 683/1/823 
f 683/1/823 701/1/822 700/1/823 
f 683/1/823 700/1/823 682/1/824 
f 682/1/824 700/1/823 702/1/824 
f 682/1/824 702/1/824 679/1/812 
f 679/1/812 702/1/824 698/1/813 
s 2
f 640/1/490 638/1/635 706/1/489 
f 706/1/489 638/1/635 612/1/489 
f 706/1/489 612/1/489 707/1/489 
s 4
f 630/1/813 654/1/825 188/1/825 
f 188/1/825 654/1/825 708/1/812 
s 2
f 188/1/485 708/1/483 129/1/483 
f 129/1/483 708/1/483 709/1/483 
s 1
f 129/1/100 709/1/826 130/1/101 
f 130/1/101 709/1/826 599/1/826 
s 2
f 238/1/827 607/1/827 236/1/827 
f 236/1/827 607/1/827 710/1/827 
s 8
f 236/1/487 710/1/487 240/1/487 
f 240/1/487 710/1/487 711/1/487 
s 4
f 240/1/813 711/1/813 612/1/813 
f 612/1/813 711/1/813 707/1/813 
s 16
f 655/1/828 656/1/829 634/1/829 
f 634/1/829 639/1/830 655/1/828 
f 655/1/828 639/1/830 640/1/15 
f 655/1/828 640/1/15 706/1/828 
f 644/1/742 667/1/742 659/1/831 
f 644/1/742 659/1/831 647/1/831 
f 647/1/831 659/1/831 663/1/832 
f 647/1/831 663/1/832 646/1/832 
f 646/1/832 663/1/832 664/1/796 
f 646/1/832 664/1/796 641/1/796 
f 605/1/590 604/1/590 653/1/833 
f 605/1/590 653/1/833 670/1/833 
f 670/1/833 653/1/833 652/1/834 
f 670/1/833 652/1/834 671/1/834 
f 671/1/834 652/1/834 651/1/835 
f 671/1/834 651/1/835 672/1/835 
f 672/1/835 651/1/835 645/1/836 
f 672/1/835 645/1/836 666/1/836 
f 666/1/836 645/1/836 642/1/797 
f 666/1/836 642/1/797 665/1/797 
f 655/1/828 706/1/828 654/1/837 
f 654/1/837 706/1/828 707/1/838 
f 707/1/838 711/1/839 710/1/840 
f 708/1/841 654/1/837 709/1/842 
f 709/1/842 654/1/837 707/1/838 
f 709/1/842 707/1/838 599/1/843 
f 599/1/843 707/1/838 710/1/840 
f 710/1/840 607/1/844 599/1/843 
f 599/1/843 607/1/844 606/1/845 
f 599/1/843 606/1/845 600/1/845 
f 600/1/845 606/1/845 611/1/846 
f 600/1/845 611/1/846 601/1/846 
f 601/1/846 611/1/846 610/1/847 
f 601/1/846 610/1/847 602/1/848 
f 602/1/848 610/1/847 609/1/849 
f 602/1/848 609/1/849 603/1/849 
f 603/1/849 609/1/849 608/1/850 
f 603/1/849 608/1/850 598/1/851 
f 598/1/851 608/1/850 135/1/106 
f 598/1/851 135/1/106 134/1/105 
f 634/1/829 656/1/829 657/1/852 
f 634/1/829 657/1/852 635/1/853 
f 635/1/853 657/1/852 658/1/854 
f 635/1/853 658/1/854 636/1/854 
f 636/1/854 658/1/854 662/1/855 
f 636/1/854 662/1/855 637/1/855 
f 637/1/855 662/1/855 661/1/856 
f 637/1/855 661/1/856 648/1/856 
f 648/1/856 661/1/856 660/1/857 
f 648/1/856 660/1/857 649/1/857 
f 649/1/857 660/1/857 669/1/858 
f 649/1/857 669/1/858 650/1/858 
f 650/1/858 669/1/858 668/1/743 
f 650/1/858 668/1/743 643/1/743 
# 0 polygons - 1422 triangles

