# Blender 4.2.3 LTS
# www.blender.org
mtllib torso_link_LED.mtl
o torso_link_LED
v 0.021917 0.096044 0.139667
v 0.023034 0.096044 0.140040
v 0.023429 0.096044 0.140597
v 0.023548 0.096044 0.141137
v 0.022551 0.096044 0.139751
v 0.020926 0.096044 0.140143
v 0.021377 0.096044 0.139811
v 0.020627 0.096044 0.140609
v 0.014921 0.096044 0.139685
v 0.014385 0.096044 0.139828
v 0.009538 0.096533 0.141141
v 0.009026 0.096533 0.140055
v 0.007922 0.096533 0.139685
v 0.006944 0.096533 0.140151
v 0.007385 0.096533 0.139828
v 0.001550 0.096827 0.139771
v 0.002023 0.096807 0.140054
v 0.000917 0.096830 0.139686
v -0.000058 0.096866 0.140152
v 0.000386 0.096855 0.139828
v -0.000372 0.096879 0.140610
v 0.001150 0.096820 0.142678
v 0.000521 0.096857 0.142594
v 0.002128 0.096803 0.142212
v 0.001683 0.096818 0.142536
v 0.002437 0.096800 0.141755
v 0.007048 0.096533 0.142310
v 0.008688 0.096533 0.142534
v 0.014048 0.096044 0.142310
v 0.015149 0.096044 0.142678
v 0.014523 0.096044 0.142594
v 0.016441 0.096044 0.141750
v 0.020632 0.096044 0.141768
v 0.021519 0.096044 0.142594
v 0.023123 0.096044 0.142213
v 0.023437 0.096044 0.141754
v 0.016431 0.096044 0.140593
v 0.016025 0.096044 0.140055
v 0.015550 0.096044 0.139770
v 0.009434 0.096533 0.140590
v 0.009442 0.096533 0.141748
v 0.009131 0.096533 0.142210
v 0.002441 0.096804 0.140591
v 0.002536 0.096793 0.141142
v 0.006648 0.096533 0.140614
v 0.008551 0.096533 0.139770
v 0.013649 0.096044 0.140614
v 0.013944 0.096044 0.140151
v 0.016539 0.096044 0.141140
v 0.008151 0.096533 0.142678
v 0.006533 0.096533 0.141224
v -0.000466 0.096877 0.141222
v 0.020532 0.096044 0.141223
v 0.016131 0.096044 0.142211
v 0.015688 0.096044 0.142535
v 0.013533 0.096044 0.141224
v 0.022680 0.096044 0.142537
v 0.022150 0.096044 0.142678
v 0.021046 0.096044 0.142311
v 0.013639 0.096044 0.141764
v 0.007524 0.096533 0.142594
v 0.006633 0.096533 0.141772
v 0.000047 0.096861 0.142309
v -0.000365 0.096880 0.141767
vn -0.0000 -1.0000 -0.0000
vn -0.0000 1.0000 -0.0000
vn 0.0279 0.9996 0.0005
vt 0.000000 0.000000
s 1
usemtl initialShadingGroup51
f 35/1/1 57/1/1 58/1/1 34/1/1 59/1/1 33/1/1 53/1/1 8/1/1 6/1/1 7/1/1 1/1/1 5/1/1 2/1/1 3/1/1 4/1/1 36/1/1
s 2
f 39/1/2 9/1/2 10/1/2 48/1/2 47/1/2 56/1/2 60/1/2 29/1/2 31/1/2 30/1/2 55/1/2 54/1/2 32/1/2 49/1/2 37/1/2 38/1/2
s 3
f 45/1/1 14/1/1 15/1/1 13/1/1 46/1/1 12/1/1 40/1/1 11/1/1 41/1/1 42/1/1 28/1/1 50/1/1 61/1/1 27/1/1 62/1/1 51/1/1
s 4
f 24/1/3 26/1/3 44/1/3 43/1/3 17/1/3 16/1/3 18/1/3 20/1/3 19/1/3 21/1/3 52/1/3 64/1/3 63/1/3 23/1/3 22/1/3 25/1/3
